<svg width="394" height="407" viewBox="0 0 394 407" fill="none" xmlns="http://www.w3.org/2000/svg">
<path d="M339.293 393.032C369.507 393.032 394 378.894 394 361.454C394 344.015 369.507 329.877 339.293 329.877C309.079 329.877 284.586 344.015 284.586 361.454C284.586 378.894 309.079 393.032 339.293 393.032Z" fill="#EEFDF7"/>
<path d="M151.297 406.959C150.4 406.95 149.533 406.633 148.841 406.061C148.15 405.49 147.675 404.699 147.496 403.82L146.612 399.167C144.616 398.802 142.644 398.317 140.707 397.714H140.554L132.363 401.514C131.69 401.805 130.959 401.938 130.227 401.905C129.494 401.871 128.779 401.672 128.135 401.321L120.005 396.606C119.514 396.343 119.1 395.957 118.803 395.486C118.505 395.016 118.334 394.476 118.306 393.92C118.279 393.364 118.395 392.81 118.645 392.313C118.895 391.815 119.268 391.39 119.731 391.079L124.67 387.523C124.221 386.926 123.811 386.302 123.44 385.654L113.033 385.004C112.089 384.944 111.202 384.528 110.553 383.839C109.903 383.151 109.54 382.241 109.537 381.295V375.199C109.538 374.253 109.898 373.342 110.545 372.651C111.193 371.961 112.078 371.542 113.023 371.48L123.43 370.82C123.801 370.175 124.211 369.554 124.66 368.961L119.7 365.435C119.238 365.124 118.864 364.7 118.615 364.202C118.365 363.704 118.248 363.15 118.276 362.594C118.304 362.038 118.475 361.499 118.772 361.028C119.07 360.557 119.484 360.172 119.974 359.908L128.105 355.194C128.813 354.799 129.611 354.596 130.422 354.605C131.08 354.595 131.733 354.73 132.333 355.001L140.534 358.801H140.636C142.596 358.193 144.592 357.704 146.612 357.338L147.496 352.684C147.673 351.805 148.147 351.012 148.839 350.441C149.531 349.869 150.399 349.553 151.297 349.545H163.299C164.196 349.555 165.063 349.872 165.755 350.443C166.446 351.014 166.921 351.805 167.1 352.684L167.984 357.338C169.976 357.704 171.944 358.185 173.879 358.78H174.031L182.233 354.981C182.83 354.711 183.478 354.576 184.133 354.584C184.947 354.574 185.75 354.777 186.461 355.174L194.591 359.888C195.08 360.152 195.492 360.538 195.789 361.008C196.086 361.478 196.257 362.016 196.285 362.572C196.314 363.127 196.199 363.68 195.952 364.178C195.705 364.675 195.335 365.102 194.876 365.415L189.926 368.971C190.375 369.566 190.789 370.187 191.166 370.83L201.573 371.491C202.518 371.553 203.403 371.971 204.051 372.662C204.698 373.352 205.058 374.263 205.059 375.209V381.305C205.056 382.251 204.695 383.16 204.048 383.85C203.401 384.54 202.517 384.96 201.573 385.024L191.166 385.674C190.792 386.322 190.378 386.947 189.926 387.544L194.876 391.1C195.335 391.413 195.705 391.839 195.952 392.337C196.199 392.835 196.314 393.388 196.285 393.943C196.257 394.498 196.086 395.036 195.789 395.506C195.492 395.976 195.08 396.362 194.591 396.627L186.461 401.341C185.748 401.733 184.947 401.935 184.133 401.93C183.479 401.933 182.831 401.798 182.233 401.534L174.031 397.734H173.93C171.973 398.345 169.981 398.837 167.964 399.207L167.08 403.85C166.903 404.731 166.429 405.525 165.737 406.098C165.045 406.671 164.177 406.99 163.279 407L151.297 406.959ZM157.303 372.74C152.963 372.638 148.669 373.653 144.833 375.687C142.038 377.302 140.433 379.365 140.433 381.366C140.433 383.368 142.038 385.43 144.833 387.046C148.706 388.983 152.977 389.992 157.308 389.992C161.639 389.992 165.91 388.983 169.783 387.046C172.578 385.43 174.174 383.368 174.174 381.366C174.174 379.365 172.578 377.302 169.783 375.687C165.944 373.654 161.647 372.64 157.303 372.74Z" fill="#008081"/>
<path d="M193.213 223.959L189.809 221.998C188.514 221.342 187.083 221 185.632 221C184.18 221 182.749 221.342 181.455 221.998L1.72262 325.783C-0.574208 327.104 -0.574208 329.278 1.72262 330.599L5.11705 332.56C6.41342 333.216 7.84606 333.558 9.29911 333.558C10.7522 333.558 12.1848 333.216 13.4812 332.56L68.0766 301.063L90.2014 313.824C96.4618 317.441 106.716 317.441 112.977 313.824L150.641 292.082C155.986 289.034 155.986 283.954 150.641 280.906L126.869 267.078L193.223 228.785C195.51 227.454 195.51 225.29 193.213 223.959Z" fill="white"/>
<g opacity="0.1">
<path opacity="0.1" d="M203.175 57.0733L40.5671 150.922V242.901C40.555 243.433 40.7038 243.957 40.9939 244.404C41.0909 244.565 41.2261 244.699 41.3874 244.795C41.5488 244.89 41.7313 244.945 41.9188 244.953C42.1521 244.948 42.3801 244.881 42.5794 244.76L207.047 149.753V59.3288C207.047 56.8295 205.309 55.8338 203.175 57.0733Z" fill="#103E13"/>
</g>
<path d="M119.381 317.526L150.541 299.522C153.752 297.663 155.358 295.235 155.358 292.807C155.358 290.378 155.358 288.468 155.358 288.468L126.027 271.836C125.126 271.246 124.375 270.452 123.837 269.518C123.299 268.585 122.987 267.538 122.928 266.462V228.057L68.5254 259.502V297.907C68.5775 298.977 68.8806 300.021 69.4102 300.953C69.9398 301.884 70.6811 302.679 71.5743 303.271L96.067 317.496C102.541 321.234 112.958 321.234 119.381 317.526Z" fill="#37474F"/>
<path d="M81.5852 304.704V309.022L71.6153 303.271C70.7136 302.681 69.9633 301.887 69.4249 300.953C68.8865 300.02 68.575 298.973 68.5156 297.897V259.502L78.8819 253.518C79.1054 256.149 79.329 258.872 79.5526 261.524L72.2759 265.73V295.733C72.3249 296.805 72.6265 297.851 73.1563 298.785C73.6862 299.719 74.4292 300.515 75.3248 301.107L81.5852 304.704Z" fill="#263238"/>
<path d="M72.2754 295.743C72.3291 296.814 72.6328 297.858 73.1622 298.791C73.6916 299.725 74.432 300.521 75.3243 301.117L96.0567 313.197C102.49 316.906 112.907 316.906 119.33 313.197L150.5 295.194C156.933 291.485 156.933 285.471 150.5 281.762L129.747 269.672C128.843 269.084 128.091 268.29 127.552 267.356C127.014 266.422 126.703 265.374 126.647 264.297V234.305L72.2754 265.73V295.743Z" fill="#455A64"/>
<path opacity="0.15" d="M136.119 273.319L129.808 269.672C128.904 269.084 128.152 268.29 127.613 267.356C127.075 266.422 126.764 265.374 126.708 264.297V234.305L72.2754 265.73V295.742C72.3291 296.814 72.6328 297.858 73.1622 298.791C73.6916 299.725 74.432 300.521 75.3243 301.117L81.5339 304.693L136.119 273.319Z" fill="#103E13"/>
<path d="M7.43518 319.426C8.61191 319.994 9.90592 320.277 11.2125 320.252C12.519 320.228 13.8014 319.896 14.9558 319.283C41.7149 303.84 167.268 231.369 194.027 215.935C195.154 215.197 196.091 214.205 196.764 213.039C197.436 211.872 197.825 210.564 197.899 209.22V59.3081C197.953 57.9804 197.642 56.6632 197 55.4997C196.359 54.3361 195.41 53.3705 194.258 52.7077C193.106 52.045 191.794 51.7103 190.465 51.7401C189.137 51.7699 187.841 52.163 186.72 52.8768L7.6791 156.225C6.56018 156.967 5.6308 157.961 4.96545 159.128C4.3001 160.294 3.91727 161.6 3.84766 162.941V312.852C3.89103 314.152 4.23807 315.423 4.86103 316.565C5.48398 317.706 6.36555 318.686 7.43518 319.426Z" fill="#37474F"/>
<path d="M14.9561 319.283L194.028 215.925C195.156 215.189 196.094 214.197 196.767 213.03C197.44 211.863 197.828 210.554 197.9 209.209V59.308C197.9 56.829 196.162 55.8333 194.028 57.0728L14.9561 160.421C13.828 161.157 12.8894 162.149 12.2166 163.316C11.5438 164.483 11.1558 165.792 11.084 167.137V317.048C11.0739 319.517 12.8117 320.513 14.9561 319.283Z" fill="#455A64"/>
<path d="M16.2051 298.964V168.915C16.2501 168.089 16.4888 167.285 16.9019 166.569C17.3151 165.852 17.891 165.243 18.5832 164.79L190.388 65.628C191.699 64.866 192.766 65.4857 192.766 66.9996V197.048C192.722 197.877 192.482 198.683 192.067 199.401C191.652 200.12 191.073 200.73 190.378 201.183L18.5832 300.345C17.2722 301.097 16.2051 300.488 16.2051 298.964Z" fill="#008081"/>
<path opacity="0.75" d="M16 299.662V169.613C16.045 168.787 16.2838 167.984 16.6969 167.267C17.11 166.551 17.6859 165.941 18.3781 165.488L190.183 66.3262C191.494 65.5642 192.561 66.184 192.561 67.6978V197.746C192.517 198.575 192.277 199.381 191.862 200.1C191.447 200.818 190.868 201.429 190.173 201.882L18.3781 301.044C17.0671 301.795 16 301.186 16 299.662Z" fill="white"/>
<path d="M4.94529 159.12L12.222 163.316C11.5281 164.478 11.1335 165.794 11.0736 167.147V317.048C11.0736 319.303 12.6082 320.563 14.9558 319.283C13.8037 319.902 12.5206 320.238 11.2127 320.263C9.90485 320.288 8.60991 320.001 7.43522 319.425C6.37104 318.79 5.48142 317.9 4.84635 316.836C4.21128 315.772 3.85065 314.567 3.79688 313.329V162.961C3.84818 161.604 4.24334 160.282 4.94529 159.12Z" fill="#263238"/>
<path d="M96.5752 261.839L112.399 252.695C113.192 252.248 113.822 252.563 113.822 253.416C113.786 253.893 113.639 254.355 113.392 254.765C113.145 255.174 112.804 255.52 112.399 255.773L96.5752 264.917C95.7926 265.375 95.1523 265.05 95.1523 264.206C95.1863 263.728 95.3329 263.264 95.5802 262.852C95.8274 262.441 96.1683 262.094 96.5752 261.839Z" fill="#008081"/>
<path d="M38.3318 240.401C38.5662 240.393 38.7944 240.323 38.9924 240.198L213.064 139.613C213.777 139.144 214.372 138.515 214.801 137.776C215.229 137.037 215.48 136.209 215.533 135.356V3.86481C215.533 2.94024 215.147 2.3916 214.517 2.3916C214.157 2.40146 213.807 2.50664 213.501 2.6964L39.4193 103.24C38.7054 103.712 38.1107 104.343 37.6822 105.083C37.2536 105.824 37.0029 106.654 36.9497 107.507V238.308C36.9401 238.84 37.0886 239.364 37.3765 239.812C37.4742 239.981 37.6127 240.124 37.7795 240.227C37.9463 240.33 38.1361 240.39 38.3318 240.401Z" fill="#F5F7FA"/>
<path d="M34.215 238.694C34.5098 238.846 36.6033 240.035 37.518 240.563C37.1817 240.292 36.9143 239.946 36.7376 239.552C36.561 239.158 36.4801 238.728 36.5017 238.297V116.275L33.0565 114.243V236.336C33.0262 236.796 33.1173 237.256 33.3206 237.67C33.5239 238.084 33.8324 238.437 34.215 238.694Z" fill="#F5F7FA"/>
<path d="M214.495 2.84858C215.003 2.84858 215.074 3.4785 215.074 3.86458V135.346C215.022 136.119 214.793 136.869 214.405 137.54C214.018 138.211 213.482 138.785 212.838 139.217L38.7671 239.801C38.6353 239.882 38.4847 239.928 38.3301 239.933C37.8524 239.933 37.4358 239.192 37.4358 238.338V107.477C37.4832 106.703 37.7098 105.95 38.0978 105.278C38.4858 104.606 39.0246 104.034 39.6716 103.606L213.743 3.09242C213.968 2.94644 214.227 2.86233 214.495 2.84858ZM214.495 1.94434C214.07 1.95582 213.655 2.08221 213.296 2.3101L39.2143 102.813C38.4323 103.326 37.7819 104.015 37.3158 104.825C36.8497 105.635 36.5809 106.543 36.5312 107.477V238.308C36.5312 239.659 37.2833 240.817 38.3301 240.817C38.6466 240.811 38.9555 240.72 39.2244 240.553L213.286 139.969C214.072 139.461 214.726 138.775 215.196 137.967C215.666 137.158 215.938 136.249 215.989 135.315V3.86458C215.989 2.64538 215.379 1.94434 214.495 1.94434Z" fill="#E0E0E0"/>
<path d="M215.981 3.80398V12.8159L36.5331 116.448L33.0879 114.416V105.557C33.1262 104.605 33.406 103.678 33.9009 102.864C34.3523 102.063 34.999 101.388 35.7811 100.904L209.852 0.359728C210.134 0.157263 210.465 0.0351676 210.811 0.00653064C211.156 -0.0221063 211.503 0.0437952 211.814 0.197167C212.312 0.501969 214.67 1.84309 215.147 2.08693C215.223 2.12243 215.291 2.17054 215.351 2.22918C215.432 2.28928 215.504 2.36119 215.564 2.44254C215.633 2.52616 215.691 2.61836 215.737 2.71686C215.799 2.81675 215.844 2.92676 215.869 3.04198C215.908 3.16098 215.935 3.28347 215.95 3.40774C215.972 3.53867 215.982 3.67126 215.981 3.80398Z" fill="#0C5353"/>
<path d="M215.981 3.80376V12.8157L36.5332 116.448V107.548C36.5406 106.974 36.6508 106.406 36.8584 105.872C36.8887 105.777 36.926 105.686 36.9702 105.597C37.0756 105.346 37.1979 105.101 37.3361 104.866C37.7849 104.054 38.4361 103.371 39.2264 102.885L213.288 2.31023C213.578 2.09187 213.928 1.96712 214.291 1.9526C214.654 1.93808 215.013 2.03448 215.32 2.22895C215.401 2.28905 215.473 2.36097 215.534 2.44231C215.603 2.52593 215.661 2.61813 215.706 2.71663C215.769 2.81652 215.814 2.92654 215.838 3.04175C215.877 3.16075 215.905 3.28325 215.92 3.40752C215.952 3.53752 215.972 3.67013 215.981 3.80376Z" fill="#008081"/>
<path d="M197.961 14.6041C197.427 15.0283 196.998 15.5697 196.707 16.1864C196.416 16.8031 196.272 17.4784 196.284 18.1601C196.284 19.5926 197.036 20.314 197.961 19.7755C198.495 19.3513 198.924 18.8098 199.214 18.1932C199.505 17.5765 199.65 16.9012 199.638 16.2195C199.587 14.8479 198.835 14.0656 197.961 14.6041Z" fill="#F5F7FA"/>
<path d="M203.957 11.1091C203.422 11.5322 202.992 12.0735 202.701 12.6904C202.41 13.3073 202.266 13.9832 202.28 14.6651C202.28 16.0875 203.032 16.819 203.957 16.2805C204.493 15.8578 204.925 15.3169 205.217 14.7001C205.51 14.0832 205.656 13.4071 205.644 12.7245C205.644 11.2919 204.892 10.5706 203.957 11.1091Z" fill="#F5F7FA"/>
<path d="M210.014 7.60365C209.478 8.02633 209.046 8.56721 208.754 9.18407C208.461 9.80092 208.315 10.4771 208.327 11.1597C208.327 12.5922 209.079 13.3136 210.014 12.7853C210.547 12.3605 210.976 11.819 211.266 11.2024C211.557 10.5859 211.702 9.91079 211.691 9.22926C211.691 7.79669 210.939 7.07533 210.014 7.60365Z" fill="#F5F7FA"/>
<path d="M213.297 2.31046L39.2254 102.814C38.4295 103.319 37.7755 104.018 37.3249 104.846L33.9102 102.814C34.3517 102.005 34.9962 101.326 35.7801 100.843L209.851 0.359728C210.133 0.157263 210.464 0.0351676 210.81 0.00653064C211.155 -0.0221063 211.502 0.0437952 211.813 0.197167C212.291 0.491809 214.526 1.76181 215.096 2.06661C214.798 1.95936 214.479 1.92552 214.166 1.96797C213.853 2.01043 213.555 2.12793 213.297 2.31046Z" fill="#0C5353"/>
<path d="M80.0701 120.756C80.0054 120.756 79.9433 120.73 79.8976 120.684C79.8519 120.639 79.8262 120.577 79.8262 120.512V110.26C79.8262 110.196 79.8519 110.134 79.8976 110.088C79.9433 110.042 80.0054 110.017 80.0701 110.017C80.1016 110.017 80.1329 110.023 80.1619 110.035C80.191 110.048 80.2172 110.066 80.2391 110.089C80.2609 110.111 80.2779 110.138 80.289 110.168C80.3002 110.197 80.3052 110.229 80.3038 110.26V120.512C80.3052 120.543 80.3002 120.575 80.289 120.604C80.2779 120.634 80.2609 120.661 80.2391 120.684C80.2172 120.707 80.191 120.725 80.1619 120.737C80.1329 120.749 80.1016 120.756 80.0701 120.756Z" fill="#455A64"/>
<path d="M79.2051 119.547L80.0283 120.37L80.8413 119.547V120.248L80.0283 121.061L79.2051 120.248V119.547Z" fill="#455A64"/>
<path d="M88.7381 121.874C88.6945 121.877 88.651 121.866 88.6131 121.845C88.5752 121.823 88.5444 121.791 88.5247 121.752C88.5086 121.725 88.4982 121.695 88.4941 121.663C88.4901 121.632 88.4924 121.6 88.5009 121.57C88.5095 121.539 88.5241 121.511 88.5439 121.486C88.5637 121.462 88.5883 121.442 88.6161 121.427L95.3644 117.525C95.3923 117.509 95.4232 117.498 95.4553 117.494C95.4874 117.49 95.52 117.492 95.5512 117.501C95.5824 117.509 95.6116 117.524 95.6371 117.544C95.6626 117.564 95.6839 117.588 95.6997 117.617C95.7294 117.672 95.7365 117.737 95.7194 117.798C95.7024 117.858 95.6625 117.91 95.6083 117.942L88.8499 121.843C88.8164 121.864 88.7775 121.875 88.7381 121.874Z" fill="#455A64"/>
<path d="M95.0591 118.927L95.364 117.809L94.2461 117.505L94.8457 117.159L95.9636 117.454L95.6689 118.571L95.0591 118.927Z" fill="#455A64"/>
<path d="M87.4881 175.732C87.4445 175.734 87.401 175.724 87.3631 175.703C87.3252 175.681 87.2944 175.649 87.2747 175.61C87.2586 175.582 87.2482 175.552 87.2441 175.521C87.2401 175.49 87.2424 175.458 87.2509 175.428C87.2595 175.397 87.2741 175.369 87.2939 175.344C87.3137 175.32 87.3383 175.299 87.3661 175.285L94.1143 171.383C94.1714 171.353 94.2378 171.345 94.3001 171.362C94.3624 171.379 94.4159 171.42 94.4497 171.475C94.4776 171.532 94.4837 171.598 94.4669 171.659C94.4501 171.721 94.4115 171.774 94.3582 171.81L87.5999 175.701C87.5664 175.722 87.5275 175.732 87.4881 175.732Z" fill="#455A64"/>
<path d="M93.8091 172.785L94.114 171.668L92.9961 171.373L93.5957 171.018L94.7136 171.322L94.4189 172.44L93.8091 172.785Z" fill="#455A64"/>
<path d="M111.992 161.589C111.95 161.59 111.909 161.579 111.873 161.558C111.837 161.536 111.808 161.505 111.789 161.468C111.771 161.441 111.76 161.411 111.755 161.379C111.75 161.347 111.752 161.315 111.76 161.284C111.769 161.253 111.784 161.225 111.805 161.2C111.826 161.176 111.851 161.156 111.88 161.142L118.628 157.241C118.655 157.223 118.685 157.212 118.717 157.207C118.749 157.202 118.781 157.204 118.812 157.212C118.843 157.221 118.871 157.236 118.896 157.257C118.92 157.278 118.94 157.303 118.954 157.332C118.97 157.359 118.981 157.389 118.986 157.419C118.991 157.45 118.989 157.482 118.982 157.512C118.974 157.542 118.961 157.571 118.942 157.596C118.923 157.621 118.899 157.642 118.872 157.657L112.114 161.559C112.077 161.58 112.035 161.59 111.992 161.589Z" fill="#455A64"/>
<path d="M118.323 158.643L118.628 157.525L117.51 157.22L118.109 156.875L119.227 157.17L118.922 158.287L118.323 158.643Z" fill="#455A64"/>
<path d="M113.607 107.537C113.566 107.538 113.524 107.527 113.488 107.505C113.452 107.484 113.423 107.453 113.404 107.415C113.388 107.389 113.377 107.359 113.372 107.328C113.367 107.297 113.369 107.266 113.376 107.236C113.384 107.205 113.397 107.177 113.416 107.152C113.435 107.127 113.458 107.106 113.485 107.09L120.244 103.189C120.271 103.173 120.301 103.162 120.332 103.158C120.364 103.154 120.396 103.156 120.426 103.165C120.456 103.174 120.485 103.188 120.509 103.208C120.534 103.228 120.554 103.252 120.569 103.28C120.586 103.307 120.596 103.336 120.601 103.367C120.606 103.398 120.605 103.43 120.597 103.46C120.59 103.49 120.576 103.519 120.557 103.544C120.538 103.569 120.515 103.59 120.488 103.605L113.729 107.507C113.692 107.526 113.65 107.537 113.607 107.537Z" fill="#455A64"/>
<path d="M119.899 104.591L120.204 103.473L119.086 103.169L119.686 102.823L120.803 103.118L120.499 104.246L119.899 104.591Z" fill="#455A64"/>
<path d="M113.129 134.624C113.087 134.625 113.045 134.616 113.008 134.596C112.97 134.577 112.939 134.548 112.916 134.512C112.9 134.484 112.889 134.453 112.885 134.421C112.881 134.389 112.883 134.357 112.891 134.326C112.9 134.294 112.915 134.265 112.934 134.24C112.954 134.214 112.979 134.193 113.007 134.177L119.756 130.276C119.812 130.243 119.879 130.235 119.942 130.252C120.005 130.269 120.059 130.31 120.091 130.367C120.123 130.424 120.132 130.491 120.115 130.554C120.098 130.616 120.056 130.67 119.999 130.702L113.241 134.594C113.208 134.614 113.169 134.625 113.129 134.624Z" fill="#455A64"/>
<path d="M113.547 133.202L113.252 134.32L114.37 134.614L113.77 134.96L112.652 134.665L112.947 133.548L113.547 133.202Z" fill="#455A64"/>
<path d="M112.693 184.998C112.651 184.998 112.61 184.987 112.574 184.966C112.538 184.944 112.509 184.913 112.489 184.876C112.466 184.848 112.45 184.814 112.442 184.779C112.435 184.743 112.436 184.706 112.446 184.671C112.456 184.636 112.475 184.604 112.5 184.577C112.525 184.551 112.556 184.531 112.591 184.52L118.892 180.873C118.948 180.843 119.013 180.836 119.073 180.853C119.134 180.87 119.185 180.91 119.217 180.964C119.234 180.991 119.245 181.02 119.25 181.051C119.254 181.082 119.253 181.113 119.245 181.144C119.238 181.174 119.224 181.203 119.205 181.227C119.187 181.252 119.163 181.273 119.136 181.289L112.825 184.937C112.787 184.968 112.741 184.989 112.693 184.998Z" fill="#455A64"/>
<path d="M113.119 183.565L112.814 184.683L113.932 184.988L113.333 185.333L112.215 185.028L112.52 183.911L113.119 183.565Z" fill="#455A64"/>
<path d="M88.8496 148.635C88.8077 148.636 88.7664 148.625 88.7305 148.603C88.6946 148.582 88.6654 148.55 88.6464 148.513C88.6299 148.487 88.6189 148.457 88.6141 148.426C88.6093 148.395 88.6107 148.364 88.6183 148.333C88.6259 148.303 88.6395 148.275 88.6583 148.25C88.677 148.225 88.7006 148.204 88.7277 148.188L95.486 144.287C95.5416 144.257 95.6064 144.25 95.6671 144.267C95.7277 144.284 95.7793 144.324 95.8113 144.378C95.8275 144.406 95.8381 144.437 95.8423 144.469C95.8465 144.501 95.8443 144.534 95.8358 144.565C95.8272 144.596 95.8126 144.625 95.7927 144.651C95.7728 144.676 95.748 144.698 95.7198 144.713L88.9716 148.605L88.8496 148.635Z" fill="#455A64"/>
<path d="M89.2776 147.213L88.9727 148.33L90.0906 148.625L89.491 148.971L88.373 148.676L88.6779 147.558L89.2776 147.213Z" fill="#455A64"/>
<path d="M127.267 116.691C127.203 116.691 127.141 116.666 127.095 116.62C127.049 116.574 127.023 116.512 127.023 116.448V108.634C127.023 108.57 127.049 108.508 127.095 108.462C127.141 108.416 127.203 108.391 127.267 108.391C127.332 108.391 127.394 108.416 127.44 108.462C127.486 108.508 127.511 108.57 127.511 108.634V116.448C127.511 116.512 127.486 116.574 127.44 116.62C127.394 116.666 127.332 116.691 127.267 116.691Z" fill="#455A64"/>
<path d="M126.453 115.493L127.266 116.306L128.089 115.493V116.184L127.266 116.997L126.453 116.184V115.493Z" fill="#455A64"/>
<path d="M80.0701 166.618C80.0303 166.63 79.9879 166.63 79.9482 166.618C79.9108 166.599 79.8796 166.57 79.858 166.534C79.8365 166.498 79.8254 166.457 79.8262 166.415V160.664C79.8262 160.599 79.8519 160.537 79.8976 160.492C79.9434 160.446 80.0054 160.42 80.0701 160.42C80.1017 160.42 80.1329 160.427 80.162 160.439C80.191 160.451 80.2173 160.469 80.2391 160.492C80.2609 160.515 80.2779 160.542 80.2891 160.571C80.3002 160.601 80.3052 160.633 80.3039 160.664V165.988L127.054 139.003V135.426C127.054 135.362 127.079 135.3 127.125 135.254C127.171 135.208 127.233 135.183 127.297 135.183C127.362 135.183 127.424 135.208 127.47 135.254C127.516 135.3 127.541 135.362 127.541 135.426V139.145C127.54 139.186 127.528 139.227 127.507 139.262C127.485 139.298 127.455 139.328 127.419 139.348L80.1717 166.618C80.1384 166.626 80.1034 166.626 80.0701 166.618Z" fill="#455A64"/>
<path d="M80.8413 161.589L80.0283 160.776L79.2051 161.589V160.898L80.0283 160.075L80.8413 160.898V161.589Z" fill="#455A64"/>
<path d="M80.0705 193.289C80.0307 193.301 79.9884 193.301 79.9486 193.289C79.9096 193.269 79.8773 193.238 79.8556 193.2C79.834 193.162 79.8239 193.119 79.8266 193.075V189.367C79.8266 189.302 79.8523 189.24 79.898 189.194C79.9438 189.149 80.0058 189.123 80.0705 189.123C80.1021 189.123 80.1333 189.129 80.1624 189.142C80.1914 189.154 80.2177 189.172 80.2395 189.195C80.2614 189.218 80.2783 189.245 80.2895 189.274C80.3006 189.304 80.3056 189.335 80.3043 189.367V192.649L127.054 165.664V160.035C127.054 159.97 127.08 159.908 127.125 159.862C127.171 159.817 127.233 159.791 127.298 159.791C127.363 159.791 127.425 159.817 127.47 159.862C127.516 159.908 127.542 159.97 127.542 160.035V165.785C127.54 165.827 127.528 165.867 127.507 165.903C127.486 165.938 127.456 165.968 127.42 165.989L80.1417 193.258C80.1201 193.273 80.096 193.283 80.0705 193.289Z" fill="#455A64"/>
<path d="M128.089 160.99L127.266 160.177L126.453 160.99V160.299L127.266 159.486L128.089 160.299V160.99Z" fill="#455A64"/>
<path d="M69.2166 186.278C69.1764 186.287 69.1348 186.287 69.0946 186.278C69.0572 186.257 69.0262 186.226 69.0048 186.188C68.9834 186.151 68.9723 186.108 68.9727 186.065V159.73C68.974 159.689 68.986 159.648 69.0073 159.613C69.0286 159.577 69.0587 159.548 69.0946 159.527L71.6557 158.043C71.7034 158.022 71.7568 158.016 71.8081 158.027C71.8593 158.038 71.9057 158.065 71.9403 158.104C71.9565 158.132 71.9671 158.163 71.9713 158.195C71.9755 158.227 71.9733 158.26 71.9647 158.291C71.9562 158.322 71.9416 158.352 71.9217 158.377C71.9018 158.403 71.877 158.424 71.8488 158.44L69.4198 159.842V185.587L72.1029 184.043C72.1302 184.019 72.1625 184.002 72.1974 183.992C72.2323 183.983 72.2689 183.981 72.3046 183.987C72.3402 183.993 72.3741 184.007 72.4036 184.028C72.4332 184.049 72.4577 184.076 72.4754 184.108C72.4931 184.139 72.5036 184.175 72.5061 184.211C72.5085 184.247 72.5029 184.283 72.4896 184.317C72.4763 184.35 72.4557 184.381 72.4292 184.405C72.4028 184.43 72.3711 184.449 72.3366 184.46L69.2877 186.217C69.2677 186.242 69.2436 186.262 69.2166 186.278Z" fill="#455A64"/>
<path d="M71.8369 185.475L72.1316 184.357L71.0137 184.052L71.6235 183.707L72.7312 184.012L72.4365 185.119L71.8369 185.475Z" fill="#455A64"/>
<path d="M136.424 171.313C136.382 171.313 136.341 171.302 136.305 171.281C136.269 171.259 136.24 171.228 136.221 171.191C136.204 171.163 136.194 171.132 136.19 171.1C136.185 171.068 136.188 171.035 136.196 171.004C136.205 170.973 136.219 170.944 136.239 170.918C136.259 170.893 136.284 170.871 136.312 170.855L138.853 169.392V146.126L136.658 147.386C136.631 147.402 136.601 147.413 136.571 147.418C136.54 147.423 136.508 147.421 136.478 147.414C136.447 147.406 136.419 147.393 136.394 147.374C136.369 147.355 136.348 147.332 136.332 147.305C136.316 147.277 136.305 147.247 136.3 147.215C136.295 147.183 136.296 147.151 136.304 147.12C136.311 147.089 136.325 147.06 136.344 147.034C136.362 147.008 136.386 146.986 136.414 146.969L138.975 145.496C139.012 145.476 139.054 145.465 139.097 145.465C139.139 145.465 139.181 145.476 139.219 145.496C139.254 145.519 139.283 145.551 139.303 145.588C139.322 145.625 139.332 145.667 139.33 145.709V169.525C139.331 169.565 139.321 169.605 139.302 169.641C139.282 169.677 139.253 169.707 139.219 169.728L136.546 171.313C136.506 171.323 136.464 171.323 136.424 171.313Z" fill="#455A64"/>
<path d="M136.85 169.869L136.555 170.987L137.673 171.281L137.063 171.637L135.945 171.332L136.25 170.215L136.85 169.869Z" fill="#455A64"/>
<path d="M87.3163 99.6937C87.3163 102.427 84.054 106.521 80.0294 108.838C76.0049 111.154 72.7324 110.87 72.7324 108.096C72.7324 105.322 75.9947 101.269 80.0294 98.952C84.0641 96.6355 87.3163 96.9607 87.3163 99.6937Z" fill="#008081"/>
<path d="M106.56 192.923C110.317 189.778 112.198 185.838 110.761 184.121C109.323 182.404 105.112 183.561 101.354 186.705C97.5968 189.85 95.7161 193.79 97.1535 195.507C98.5909 197.224 102.802 196.067 106.56 192.923Z" fill="#008081"/>
<path d="M86.6663 127.208L73.3833 134.869C72.9869 135.092 72.6719 134.869 72.6719 134.32V127.482C72.675 127.214 72.741 126.95 72.8645 126.712C72.9881 126.474 73.1657 126.268 73.3833 126.111L86.6663 118.48C87.0626 118.257 87.3777 118.48 87.3777 119.029V125.857C87.3706 126.121 87.3028 126.381 87.1795 126.615C87.0561 126.849 86.8805 127.052 86.6663 127.208Z" fill="#CFCFCF"/>
<path d="M110.558 113.4L97.3466 121.051C96.9502 121.284 96.625 121.051 96.625 120.512V113.674C96.6293 113.405 96.6968 113.141 96.8222 112.903C96.9475 112.664 97.1272 112.459 97.3466 112.303L110.558 104.642C110.955 104.408 111.28 104.642 111.28 105.181V112.018C111.277 112.289 111.211 112.556 111.085 112.796C110.96 113.036 110.779 113.243 110.558 113.4Z" fill="#CFCFCF"/>
<path d="M110.558 140.223L97.3466 147.884C96.9502 148.117 96.625 147.884 96.625 147.345V140.507C96.6301 140.238 96.698 139.974 96.8233 139.736C96.9485 139.498 97.1277 139.292 97.3466 139.136L110.558 131.475C110.955 131.241 111.28 131.475 111.28 132.014V138.851C111.276 139.12 111.208 139.385 111.083 139.623C110.957 139.861 110.778 140.067 110.558 140.223Z" fill="#CFCFCF"/>
<path d="M110.558 166.537L97.3466 174.198C96.9502 174.421 96.625 174.198 96.625 173.649V166.811C96.6301 166.542 96.698 166.278 96.8233 166.04C96.9485 165.802 97.1277 165.597 97.3466 165.44L110.558 157.779C110.955 157.556 111.28 157.779 111.28 158.328V165.155C111.276 165.426 111.208 165.692 111.083 165.932C110.958 166.172 110.778 166.379 110.558 166.537Z" fill="#CFCFCF"/>
<path d="M133.934 153.074L120.661 160.735C120.265 160.969 119.939 160.735 119.939 160.197V153.359C119.945 153.09 120.012 152.826 120.138 152.588C120.263 152.35 120.442 152.144 120.661 151.987L133.934 144.327C134.33 144.093 134.655 144.327 134.655 144.865V151.703C134.651 151.972 134.584 152.236 134.458 152.475C134.333 152.713 134.153 152.918 133.934 153.074Z" fill="#CFCFCF"/>
<path d="M133.933 176.89L120.63 184.52C120.233 184.754 119.908 184.52 119.908 183.982V177.144C119.913 176.875 119.98 176.61 120.105 176.372C120.231 176.134 120.41 175.928 120.63 175.772L133.933 168.142C134.329 167.908 134.655 168.142 134.655 168.681V175.518C134.65 175.787 134.582 176.051 134.456 176.29C134.331 176.528 134.152 176.733 133.933 176.89Z" fill="#CFCFCF"/>
<path d="M86.6663 154.04L73.3833 161.701C72.9869 161.934 72.6719 161.701 72.6719 161.152V154.325C72.675 154.055 72.7409 153.79 72.8644 153.55C72.9879 153.31 73.1655 153.102 73.3833 152.943L86.6663 145.282C87.0626 145.059 87.3777 145.282 87.3777 145.831V152.668C87.3745 152.937 87.3086 153.201 87.185 153.439C87.0615 153.677 86.8838 153.883 86.6663 154.04Z" fill="#CFCFCF"/>
<path d="M126.597 106.562L120.987 98.7286C120.81 98.2943 120.78 97.8143 120.901 97.3614C121.022 96.9084 121.288 96.5074 121.658 96.219L132.837 89.7471C133.548 89.3305 133.945 90.3567 133.508 91.4743L127.898 105.79C127.603 106.664 126.942 107.04 126.597 106.562Z" fill="#455A64"/>
<path d="M132.979 123.976L127.776 132.947C127.471 133.466 127.064 133.709 126.759 133.537L121.556 130.57C121.099 130.306 121.099 129.259 121.556 128.467L126.759 119.506C127.064 118.988 127.471 118.744 127.776 118.916L132.979 121.883C133.436 122.137 133.436 123.194 132.979 123.976Z" fill="#008081"/>
<path d="M85.7306 177.55L80.5374 186.552C80.2325 187.07 79.8158 187.314 79.5211 187.141L74.3176 184.174C73.8603 183.92 73.8603 182.864 74.3176 182.071L79.5211 173.11C79.8158 172.592 80.2325 172.348 80.5374 172.521L85.7306 175.488C86.1676 175.711 86.1676 176.768 85.7306 177.55Z" fill="#008081"/>
<path d="M60.3426 145.912C60.3007 145.912 60.2595 145.901 60.2224 145.882C60.1853 145.862 60.1533 145.834 60.1292 145.8C60.0989 145.743 60.0916 145.677 60.1086 145.614C60.1256 145.552 60.1656 145.499 60.2206 145.465L75.8919 136.422C75.9193 136.406 75.9497 136.395 75.9813 136.39C76.013 136.385 76.0453 136.386 76.0765 136.394C76.1076 136.401 76.137 136.415 76.1629 136.434C76.1887 136.453 76.2106 136.476 76.2273 136.504C76.2575 136.561 76.2649 136.627 76.2479 136.689C76.2309 136.752 76.1908 136.805 76.1358 136.839L60.4645 145.912C60.4244 145.921 60.3827 145.921 60.3426 145.912Z" fill="#455A64"/>
<path d="M60.3438 148.228C60.3008 148.228 60.2587 148.216 60.2213 148.195C60.184 148.174 60.1527 148.143 60.1304 148.106C60.1007 148.051 60.0936 147.986 60.1107 147.926C60.1277 147.865 60.1675 147.813 60.2218 147.781L75.8931 138.729C75.9502 138.699 76.0166 138.691 76.0789 138.708C76.1412 138.725 76.1947 138.765 76.2285 138.82C76.2582 138.876 76.2652 138.941 76.2482 139.001C76.2311 139.062 76.1913 139.113 76.137 139.145L60.4657 148.198C60.428 148.217 60.3862 148.228 60.3438 148.228Z" fill="#E0E0E0"/>
<path d="M60.3426 150.504C60.3 150.502 60.2585 150.49 60.2215 150.469C60.1844 150.448 60.1528 150.418 60.1292 150.382C60.0989 150.325 60.0916 150.259 60.1086 150.197C60.1256 150.134 60.1656 150.081 60.2206 150.047L75.8919 141.005C75.9199 140.988 75.9508 140.978 75.9829 140.974C76.015 140.97 76.0476 140.972 76.0788 140.98C76.11 140.989 76.1392 141.003 76.1647 141.023C76.1902 141.043 76.2115 141.068 76.2273 141.096C76.257 141.152 76.2641 141.217 76.247 141.277C76.23 141.338 76.1901 141.389 76.1358 141.421L60.4645 150.474L60.3426 150.504Z" fill="#E0E0E0"/>
<path d="M60.3426 152.77C60.3007 152.77 60.2595 152.76 60.2224 152.74C60.1853 152.721 60.1533 152.693 60.1292 152.659C60.0989 152.602 60.0916 152.535 60.1086 152.473C60.1256 152.411 60.1656 152.357 60.2206 152.323L75.8919 143.281C75.9193 143.264 75.9497 143.253 75.9813 143.248C76.013 143.243 76.0453 143.244 76.0765 143.252C76.1076 143.26 76.137 143.273 76.1629 143.292C76.1887 143.311 76.2106 143.335 76.2273 143.362C76.2575 143.419 76.2649 143.486 76.2479 143.548C76.2309 143.61 76.1908 143.664 76.1358 143.697L60.4645 152.74C60.4268 152.759 60.385 152.77 60.3426 152.77Z" fill="#E0E0E0"/>
<path d="M53.4538 119.364C53.4119 119.364 53.3706 119.353 53.3347 119.332C53.2988 119.31 53.2696 119.279 53.2506 119.242C53.2339 119.214 53.2227 119.184 53.2178 119.152C53.2128 119.121 53.2142 119.088 53.2217 119.057C53.2293 119.026 53.2429 118.997 53.2618 118.971C53.2807 118.945 53.3045 118.923 53.3319 118.906L69.0133 109.864C69.0668 109.847 69.1245 109.849 69.1768 109.87C69.229 109.89 69.2725 109.928 69.2999 109.977C69.3274 110.026 69.3371 110.083 69.3275 110.138C69.3179 110.194 69.2895 110.244 69.2471 110.281L53.5758 119.333C53.538 119.353 53.4963 119.363 53.4538 119.364Z" fill="#455A64"/>
<path d="M53.4538 121.63C53.4131 121.631 53.373 121.621 53.3373 121.601C53.3017 121.582 53.2718 121.553 53.2506 121.518C53.2339 121.491 53.2227 121.461 53.2178 121.429C53.2128 121.397 53.2142 121.365 53.2217 121.334C53.2293 121.303 53.2429 121.273 53.2618 121.247C53.2807 121.222 53.3045 121.2 53.3319 121.183L69.0133 112.14C69.0399 112.124 69.0695 112.113 69.1004 112.108C69.1313 112.103 69.1628 112.105 69.1931 112.112C69.2234 112.12 69.2519 112.134 69.2769 112.152C69.3019 112.171 69.3228 112.195 69.3385 112.222C69.3548 112.25 69.3653 112.281 69.3696 112.313C69.3738 112.345 69.3715 112.377 69.363 112.409C69.3545 112.44 69.3399 112.469 69.32 112.494C69.3001 112.52 69.2753 112.541 69.2471 112.557L53.5758 121.6C53.538 121.619 53.4963 121.629 53.4538 121.63Z" fill="#E0E0E0"/>
<path d="M53.4531 123.905C53.4112 123.906 53.37 123.895 53.334 123.873C53.2981 123.852 53.2689 123.82 53.2499 123.783C53.2334 123.757 53.2225 123.727 53.2176 123.696C53.2128 123.665 53.2142 123.634 53.2218 123.603C53.2294 123.573 53.243 123.545 53.2618 123.52C53.2806 123.495 53.3042 123.474 53.3312 123.458L69.0126 114.416C69.0682 114.386 69.133 114.379 69.1937 114.396C69.2543 114.413 69.3059 114.453 69.3379 114.507C69.3539 114.534 69.3643 114.564 69.3684 114.596C69.3725 114.627 69.3702 114.659 69.3616 114.689C69.3531 114.719 69.3384 114.748 69.3186 114.772C69.2988 114.797 69.2743 114.817 69.2464 114.832L53.5751 123.885C53.5365 123.901 53.4948 123.908 53.4531 123.905Z" fill="#E0E0E0"/>
<path d="M53.4529 126.181C53.3985 126.182 53.3454 126.165 53.302 126.132C53.2585 126.099 53.2273 126.053 53.2133 126.001C53.1993 125.948 53.2033 125.892 53.2246 125.842C53.2459 125.792 53.2833 125.751 53.331 125.724L69.0124 116.682C69.0396 116.666 69.0698 116.655 69.1011 116.651C69.1324 116.647 69.1642 116.65 69.1946 116.658C69.2249 116.667 69.2533 116.681 69.2779 116.701C69.3025 116.721 69.3228 116.745 69.3376 116.773C69.3537 116.801 69.3641 116.831 69.3681 116.862C69.3722 116.893 69.3699 116.925 69.3614 116.955C69.3528 116.986 69.3382 117.014 69.3184 117.039C69.2986 117.063 69.274 117.084 69.2462 117.098L53.5749 126.151L53.4529 126.181Z" fill="#E0E0E0"/>
<path d="M96.117 125.033C96.0626 125.034 96.0094 125.017 95.966 124.984C95.9226 124.951 95.8914 124.905 95.8774 124.852C95.8634 124.8 95.8673 124.744 95.8886 124.694C95.91 124.644 95.9474 124.602 95.995 124.576L111.677 115.533C111.704 115.517 111.734 115.507 111.765 115.503C111.796 115.499 111.828 115.501 111.859 115.51C111.889 115.518 111.917 115.533 111.942 115.553C111.967 115.572 111.987 115.597 112.002 115.625C112.018 115.652 112.028 115.682 112.032 115.714C112.036 115.745 112.034 115.777 112.025 115.807C112.017 115.837 112.002 115.866 111.983 115.89C111.963 115.915 111.938 115.935 111.91 115.95L96.2389 124.992C96.2041 125.02 96.1611 125.034 96.117 125.033Z" fill="#455A64"/>
<path d="M96.1172 127.298C96.0753 127.299 96.034 127.288 95.9981 127.267C95.9621 127.245 95.933 127.214 95.9139 127.176C95.8975 127.15 95.8865 127.12 95.8817 127.089C95.8769 127.059 95.8783 127.027 95.8859 126.997C95.8935 126.966 95.9071 126.938 95.9258 126.913C95.9446 126.888 95.9682 126.867 95.9952 126.851L111.677 117.799C111.733 117.773 111.797 117.769 111.855 117.789C111.914 117.808 111.963 117.849 111.993 117.903C112.022 117.957 112.03 118.021 112.015 118.08C112 118.14 111.962 118.192 111.91 118.225L96.2392 127.268L96.1172 127.298Z" fill="#E0E0E0"/>
<path d="M96.1172 129.574C96.0753 129.575 96.034 129.564 95.9981 129.543C95.9621 129.521 95.933 129.49 95.9139 129.452C95.8975 129.426 95.8865 129.396 95.8817 129.365C95.8769 129.335 95.8783 129.303 95.8859 129.273C95.8935 129.242 95.9071 129.214 95.9258 129.189C95.9446 129.164 95.9682 129.143 95.9952 129.127L111.677 120.075C111.732 120.045 111.797 120.038 111.858 120.055C111.918 120.072 111.97 120.112 112.002 120.166C112.018 120.193 112.028 120.223 112.032 120.255C112.037 120.286 112.034 120.318 112.026 120.348C112.017 120.379 112.003 120.407 111.983 120.432C111.963 120.456 111.938 120.476 111.91 120.491L96.2392 129.544C96.2014 129.563 96.1597 129.574 96.1172 129.574Z" fill="#E0E0E0"/>
<path d="M96.117 131.851C96.0626 131.852 96.0094 131.835 95.966 131.802C95.9226 131.769 95.8914 131.723 95.8774 131.67C95.8634 131.618 95.8673 131.562 95.8886 131.512C95.91 131.462 95.9474 131.42 95.995 131.394L111.677 122.351C111.703 122.335 111.733 122.324 111.764 122.319C111.794 122.314 111.826 122.316 111.856 122.323C111.887 122.331 111.915 122.345 111.94 122.363C111.965 122.382 111.986 122.406 112.002 122.433C112.018 122.461 112.029 122.492 112.033 122.524C112.037 122.556 112.035 122.588 112.026 122.62C112.018 122.651 112.003 122.68 111.983 122.705C111.963 122.731 111.938 122.752 111.91 122.768L96.2389 131.81C96.2041 131.838 96.1611 131.852 96.117 131.851Z" fill="#E0E0E0"/>
<path d="M118.791 86.171C118.749 86.1718 118.708 86.1608 118.672 86.1392C118.636 86.1176 118.607 86.0864 118.588 86.0491C118.57 86.0223 118.558 85.9921 118.553 85.9605C118.549 85.9288 118.55 85.8965 118.559 85.8657C118.568 85.8348 118.583 85.8062 118.604 85.7818C118.624 85.7573 118.65 85.7376 118.679 85.724L134.35 76.6714C134.406 76.6417 134.471 76.6346 134.531 76.6517C134.592 76.6687 134.644 76.7086 134.676 76.7628C134.692 76.7894 134.703 76.819 134.708 76.8498C134.713 76.8807 134.711 76.9122 134.704 76.9425C134.696 76.9729 134.682 77.0013 134.664 77.0263C134.645 77.0513 134.621 77.0722 134.594 77.0879L118.913 86.1405C118.876 86.1612 118.833 86.1717 118.791 86.171Z" fill="#455A64"/>
<path d="M118.79 88.4472C118.749 88.4458 118.708 88.4339 118.673 88.4126C118.637 88.3912 118.608 88.3612 118.587 88.3253C118.558 88.2685 118.553 88.2028 118.572 88.142C118.591 88.0813 118.633 88.0304 118.689 88.0002L134.36 78.9577C134.387 78.9401 134.417 78.9285 134.449 78.9235C134.48 78.9186 134.513 78.9206 134.543 78.9292C134.574 78.9379 134.603 78.9531 134.627 78.9738C134.652 78.9945 134.672 79.0202 134.685 79.0492C134.702 79.0757 134.713 79.1053 134.717 79.1362C134.722 79.1671 134.721 79.1986 134.713 79.2289C134.706 79.2592 134.692 79.2877 134.673 79.3127C134.655 79.3376 134.631 79.3586 134.604 79.3743L118.922 88.4167C118.904 88.4304 118.882 88.4402 118.859 88.4455C118.837 88.4507 118.813 88.4513 118.79 88.4472Z" fill="#E0E0E0"/>
<path d="M118.79 90.713C118.749 90.7138 118.707 90.7027 118.671 90.6812C118.635 90.6596 118.606 90.6284 118.587 90.5911C118.571 90.5639 118.561 90.5337 118.557 90.5025C118.553 90.4712 118.555 90.4394 118.563 90.409C118.572 90.3786 118.587 90.3503 118.606 90.3257C118.626 90.3011 118.651 90.2808 118.679 90.266L134.35 81.2235C134.376 81.207 134.406 81.1961 134.437 81.1913C134.468 81.1865 134.499 81.1879 134.53 81.1955C134.56 81.203 134.589 81.2166 134.614 81.2354C134.638 81.2542 134.659 81.2778 134.675 81.3048C134.692 81.3321 134.703 81.3625 134.708 81.3942C134.713 81.4258 134.712 81.4581 134.704 81.4893C134.696 81.5204 134.683 81.5497 134.664 81.5756C134.645 81.6015 134.621 81.6234 134.594 81.6401L118.912 90.6825C118.875 90.7031 118.833 90.7137 118.79 90.713Z" fill="#E0E0E0"/>
<path d="M118.791 92.9884C118.749 92.9892 118.708 92.9781 118.672 92.9566C118.636 92.935 118.607 92.9038 118.588 92.8665C118.57 92.8397 118.558 92.8095 118.553 92.7778C118.549 92.7462 118.55 92.7139 118.559 92.683C118.568 92.6522 118.583 92.6236 118.604 92.5992C118.624 92.5747 118.65 92.555 118.679 92.5413L134.35 83.4887C134.406 83.4591 134.471 83.452 134.531 83.4691C134.592 83.4861 134.644 83.5259 134.676 83.5802C134.692 83.6068 134.703 83.6363 134.708 83.6672C134.713 83.6981 134.711 83.7296 134.704 83.7599C134.696 83.7902 134.682 83.8187 134.664 83.8437C134.645 83.8687 134.621 83.8896 134.594 83.9053L118.913 92.9579C118.876 92.9785 118.833 92.9891 118.791 92.9884Z" fill="#E0E0E0"/>
<path d="M133.314 111.612C133.272 111.613 133.231 111.602 133.195 111.58C133.159 111.559 133.13 111.528 133.111 111.49C133.093 111.463 133.082 111.433 133.077 111.402C133.072 111.37 133.074 111.338 133.083 111.307C133.091 111.276 133.106 111.247 133.127 111.223C133.148 111.198 133.174 111.179 133.203 111.165L148.874 102.112C148.93 102.08 148.998 102.072 149.06 102.089C149.123 102.106 149.177 102.147 149.209 102.204C149.242 102.26 149.25 102.328 149.233 102.39C149.216 102.453 149.174 102.507 149.118 102.539L133.436 111.582C133.399 111.602 133.357 111.613 133.314 111.612Z" fill="#455A64"/>
<path d="M133.314 113.888C133.273 113.889 133.231 113.878 133.195 113.856C133.159 113.835 133.13 113.803 133.111 113.766C133.095 113.738 133.084 113.707 133.08 113.675C133.076 113.643 133.078 113.611 133.087 113.579C133.095 113.548 133.11 113.519 133.13 113.493C133.15 113.468 133.174 113.447 133.203 113.431L148.874 104.388C148.901 104.371 148.931 104.359 148.963 104.354C148.994 104.349 149.027 104.351 149.057 104.36C149.088 104.369 149.117 104.384 149.141 104.404C149.166 104.425 149.186 104.451 149.199 104.48C149.216 104.506 149.227 104.536 149.231 104.567C149.236 104.598 149.235 104.629 149.227 104.66C149.22 104.69 149.206 104.718 149.187 104.743C149.169 104.768 149.145 104.789 149.118 104.805L133.436 113.858C133.399 113.878 133.357 113.889 133.314 113.888Z" fill="#E0E0E0"/>
<path d="M133.314 116.153C133.274 116.154 133.234 116.144 133.198 116.125C133.162 116.105 133.132 116.076 133.111 116.042C133.095 116.014 133.084 115.983 133.08 115.951C133.076 115.919 133.078 115.886 133.087 115.855C133.095 115.824 133.11 115.794 133.13 115.769C133.15 115.743 133.174 115.722 133.203 115.706L148.874 106.664C148.901 106.647 148.93 106.637 148.961 106.632C148.992 106.627 149.023 106.628 149.054 106.636C149.084 106.643 149.113 106.657 149.138 106.676C149.163 106.695 149.183 106.718 149.199 106.745C149.216 106.773 149.227 106.803 149.232 106.835C149.237 106.866 149.236 106.899 149.228 106.93C149.22 106.961 149.207 106.99 149.188 107.016C149.169 107.042 149.145 107.064 149.118 107.08L133.436 116.123C133.399 116.144 133.357 116.154 133.314 116.153Z" fill="#E0E0E0"/>
<path d="M133.314 118.48C133.272 118.48 133.231 118.469 133.195 118.448C133.159 118.426 133.13 118.395 133.111 118.358C133.093 118.331 133.082 118.301 133.077 118.269C133.072 118.237 133.074 118.205 133.083 118.174C133.091 118.143 133.106 118.115 133.127 118.09C133.148 118.066 133.174 118.046 133.203 118.033L148.874 108.98C148.929 108.95 148.994 108.943 149.055 108.96C149.115 108.977 149.167 109.017 149.199 109.071C149.216 109.098 149.226 109.128 149.231 109.158C149.236 109.189 149.235 109.221 149.227 109.251C149.22 109.281 149.206 109.31 149.187 109.335C149.168 109.36 149.145 109.381 149.118 109.397L133.436 118.449C133.399 118.47 133.357 118.48 133.314 118.48Z" fill="#E0E0E0"/>
<path d="M133.314 134.208C133.272 134.209 133.231 134.198 133.195 134.176C133.159 134.155 133.13 134.124 133.111 134.086C133.093 134.059 133.082 134.029 133.077 133.998C133.072 133.966 133.074 133.934 133.083 133.903C133.091 133.872 133.106 133.843 133.127 133.819C133.148 133.794 133.174 133.775 133.203 133.761L148.874 124.708C148.929 124.679 148.994 124.672 149.055 124.689C149.115 124.706 149.167 124.746 149.199 124.8C149.216 124.826 149.226 124.856 149.231 124.887C149.236 124.918 149.235 124.949 149.227 124.98C149.22 125.01 149.206 125.038 149.187 125.063C149.168 125.088 149.145 125.109 149.118 125.125L133.436 134.178C133.399 134.198 133.357 134.209 133.314 134.208Z" fill="#455A64"/>
<path d="M133.314 136.484C133.273 136.482 133.233 136.47 133.197 136.449C133.161 136.428 133.132 136.398 133.111 136.362C133.095 136.334 133.084 136.303 133.08 136.271C133.076 136.239 133.078 136.206 133.087 136.175C133.095 136.144 133.11 136.115 133.13 136.089C133.15 136.064 133.174 136.042 133.203 136.027L148.874 126.984C148.901 126.966 148.931 126.955 148.963 126.95C148.994 126.945 149.027 126.947 149.057 126.956C149.088 126.964 149.117 126.979 149.141 127C149.166 127.021 149.186 127.047 149.199 127.076C149.216 127.102 149.227 127.132 149.231 127.163C149.236 127.193 149.235 127.225 149.227 127.255C149.22 127.286 149.206 127.314 149.187 127.339C149.169 127.364 149.145 127.385 149.118 127.401L133.436 136.453C133.399 136.474 133.357 136.484 133.314 136.484Z" fill="#E0E0E0"/>
<path d="M133.314 138.8C133.272 138.801 133.231 138.79 133.195 138.768C133.159 138.747 133.13 138.715 133.111 138.678C133.095 138.651 133.084 138.621 133.08 138.589C133.076 138.558 133.078 138.526 133.087 138.496C133.095 138.466 133.11 138.437 133.13 138.413C133.15 138.388 133.174 138.368 133.202 138.353L148.873 129.31C148.9 129.294 148.93 129.283 148.96 129.278C148.991 129.273 149.023 129.275 149.053 129.282C149.083 129.29 149.112 129.304 149.137 129.322C149.162 129.341 149.183 129.365 149.199 129.392C149.215 129.419 149.226 129.449 149.231 129.481C149.236 129.513 149.235 129.545 149.227 129.576C149.22 129.607 149.206 129.637 149.187 129.663C149.168 129.688 149.145 129.71 149.117 129.727L133.436 138.769C133.399 138.79 133.356 138.801 133.314 138.8Z" fill="#E0E0E0"/>
<path d="M133.314 141.026C133.272 141.026 133.231 141.015 133.195 140.994C133.159 140.972 133.13 140.941 133.111 140.904C133.093 140.877 133.082 140.847 133.077 140.815C133.072 140.783 133.074 140.751 133.083 140.72C133.091 140.689 133.106 140.661 133.127 140.636C133.148 140.612 133.174 140.592 133.203 140.578L148.874 131.526C148.929 131.496 148.994 131.489 149.055 131.506C149.115 131.523 149.167 131.563 149.199 131.617C149.216 131.644 149.226 131.673 149.231 131.704C149.236 131.735 149.235 131.767 149.227 131.797C149.22 131.827 149.206 131.856 149.187 131.881C149.168 131.906 149.145 131.927 149.118 131.942L133.436 140.995C133.399 141.016 133.357 141.026 133.314 141.026Z" fill="#E0E0E0"/>
<path d="M59.5707 197.251C59.5287 197.251 59.4872 197.241 59.4499 197.222C59.4127 197.202 59.3809 197.174 59.3573 197.139C59.341 197.111 59.3305 197.08 59.3263 197.048C59.3221 197.016 59.3243 196.983 59.3328 196.952C59.3413 196.921 59.356 196.892 59.3759 196.866C59.3958 196.841 59.4206 196.82 59.4488 196.804L75.1201 187.761C75.1474 187.745 75.1778 187.733 75.2095 187.729C75.2411 187.724 75.2735 187.725 75.3046 187.732C75.3357 187.74 75.3651 187.754 75.391 187.773C75.4169 187.791 75.4388 187.815 75.4554 187.843C75.4857 187.9 75.493 187.966 75.476 188.028C75.4591 188.091 75.419 188.144 75.364 188.178L59.7435 197.22C59.6908 197.249 59.6301 197.26 59.5707 197.251Z" fill="#455A64"/>
<path d="M59.5701 199.526C59.5269 199.527 59.4844 199.516 59.4469 199.494C59.4094 199.473 59.3783 199.442 59.3567 199.404C59.3406 199.377 59.3303 199.347 59.3262 199.316C59.3221 199.284 59.3244 199.253 59.3329 199.222C59.3415 199.192 59.3561 199.164 59.3759 199.139C59.3957 199.114 59.4203 199.094 59.4482 199.079L75.1194 190.027C75.1765 189.996 75.2429 189.989 75.3052 190.006C75.3675 190.023 75.421 190.063 75.4548 190.118C75.4845 190.174 75.4916 190.238 75.4745 190.299C75.4575 190.36 75.4176 190.411 75.3634 190.443L59.7429 199.496L59.5701 199.526Z" fill="#E0E0E0"/>
<path d="M59.5707 201.792C59.5279 201.791 59.4862 201.779 59.449 201.758C59.4118 201.737 59.3803 201.707 59.3573 201.671C59.341 201.643 59.3305 201.612 59.3263 201.58C59.3221 201.548 59.3243 201.515 59.3328 201.484C59.3413 201.453 59.356 201.423 59.3759 201.398C59.3958 201.372 59.4206 201.351 59.4488 201.335L75.1201 192.293C75.148 192.277 75.1789 192.266 75.211 192.262C75.2431 192.258 75.2757 192.26 75.3069 192.268C75.3381 192.277 75.3673 192.291 75.3928 192.311C75.4183 192.331 75.4396 192.356 75.4554 192.384C75.4851 192.44 75.4922 192.505 75.4751 192.565C75.4581 192.626 75.4183 192.677 75.364 192.709L59.7435 201.792C59.6874 201.811 59.6268 201.811 59.5707 201.792Z" fill="#E0E0E0"/>
<path d="M59.5714 204.068C59.52 204.066 59.4709 204.047 59.4308 204.015C59.3908 203.982 59.362 203.938 59.3484 203.889C59.3349 203.839 59.3374 203.787 59.3555 203.739C59.3737 203.691 59.4065 203.649 59.4494 203.621L75.1207 194.579C75.1481 194.562 75.1784 194.551 75.2101 194.546C75.2418 194.541 75.2741 194.542 75.3052 194.55C75.3364 194.557 75.3657 194.571 75.3916 194.59C75.4175 194.609 75.4394 194.633 75.4561 194.66C75.4863 194.717 75.4937 194.783 75.4767 194.846C75.4597 194.908 75.4196 194.961 75.3646 194.995L59.7441 204.038L59.5714 204.068Z" fill="#E0E0E0"/>
<path d="M241.968 28.0566V151.897C241.913 152.93 241.615 153.935 241.098 154.83C240.58 155.726 239.858 156.486 238.99 157.049L159.821 202.769C159.515 202.957 159.163 203.056 158.804 203.053C158.68 203.068 158.553 203.068 158.428 203.053C158.34 203.034 158.255 203.003 158.174 202.962L158.012 202.88L157.839 202.759C157.78 202.717 157.726 202.669 157.676 202.616C157.443 202.395 157.256 202.129 157.128 201.834C156.92 201.36 156.813 200.848 156.812 200.33V77.0991C156.871 76.0675 157.171 75.064 157.688 74.1693C158.205 73.2747 158.925 72.5138 159.79 71.948L238.96 26.3192C239.251 26.1124 239.589 25.981 239.944 25.9366C240.299 25.8923 240.659 25.9365 240.992 26.0652C241.081 26.1084 241.166 26.1594 241.246 26.2176C241.508 26.4416 241.711 26.7265 241.837 27.0471C241.962 27.3678 242.008 27.7144 241.968 28.0566Z" fill="#455A64"/>
<path d="M240.311 26.9389C240.406 26.9345 240.501 26.9556 240.585 26.9998H240.636C240.636 26.9998 240.951 27.264 240.951 28.0158V151.897C240.898 152.751 240.647 153.581 240.218 154.321C239.79 155.062 239.195 155.693 238.481 156.164L159.322 201.885C159.178 201.975 159.014 202.027 158.844 202.037H158.671H158.621L158.539 201.976H158.478L158.428 201.925C158.301 201.795 158.198 201.644 158.123 201.478C157.975 201.135 157.898 200.765 157.899 200.391V77.099C157.961 76.2474 158.216 75.421 158.644 74.6819C159.071 73.9428 159.661 73.3102 160.369 72.8318L239.538 27.203C239.781 27.0454 240.062 26.9543 240.351 26.9389H240.311ZM240.351 25.9229C239.884 25.9371 239.428 26.0737 239.03 26.3191L159.861 71.9479C158.996 72.5137 158.276 73.2746 157.759 74.1692C157.241 75.0639 156.941 76.0674 156.883 77.099V200.239C156.883 200.756 156.99 201.268 157.198 201.742C157.327 202.037 157.513 202.303 157.747 202.525C157.796 202.577 157.85 202.625 157.909 202.667L158.082 202.789L158.245 202.87C158.325 202.911 158.411 202.942 158.499 202.962C158.624 202.976 158.75 202.976 158.875 202.962C159.209 202.948 159.534 202.851 159.82 202.677L238.989 156.957C239.857 156.394 240.579 155.634 241.097 154.739C241.614 153.843 241.913 152.838 241.967 151.806V28.0565C242 27.7208 241.951 27.3823 241.826 27.0693C241.7 26.7563 241.501 26.4781 241.246 26.2581C240.976 26.0576 240.647 25.9538 240.311 25.9635L240.351 25.9229Z" fill="#455A64"/>
<g opacity="0.8">
<path opacity="0.8" d="M241.968 28.0566V151.897C241.913 152.93 241.615 153.935 241.098 154.83C240.58 155.726 239.858 156.486 238.99 157.049L159.821 202.769C159.515 202.957 159.163 203.056 158.804 203.053C158.68 203.068 158.553 203.068 158.428 203.053C158.34 203.034 158.255 203.003 158.174 202.962L158.012 202.88L157.839 202.759C157.78 202.717 157.726 202.669 157.676 202.616C157.443 202.395 157.256 202.129 157.128 201.834C156.92 201.36 156.813 200.848 156.812 200.33V77.0991C156.871 76.0675 157.171 75.064 157.688 74.1693C158.205 73.2747 158.925 72.5138 159.79 71.948L238.96 26.3192C239.251 26.1124 239.589 25.981 239.944 25.9366C240.299 25.8923 240.659 25.9365 240.992 26.0652C241.081 26.1084 241.166 26.1594 241.246 26.2176C241.508 26.4416 241.711 26.7265 241.837 27.0471C241.962 27.3678 242.008 27.7144 241.968 28.0566Z" fill="#455A64"/>
</g>
<path d="M240.992 26.0241C240.659 25.8954 240.299 25.8512 239.944 25.8956C239.589 25.9399 239.251 26.0713 238.96 26.2781L159.79 71.9069C158.925 72.4728 158.205 73.2336 157.688 74.1283C157.171 75.0229 156.871 76.0264 156.812 77.058V86.7812L153.021 84.5562V74.9041C153.076 73.874 153.373 72.8713 153.889 71.9779C154.404 71.0844 155.124 70.3255 155.989 69.7631L235.169 24.1343C235.475 23.9059 235.84 23.7685 236.221 23.7379C236.602 23.7074 236.984 23.7849 237.323 23.9616C237.892 24.3172 240.362 25.7396 240.992 26.0241Z" fill="#0C5353"/>
<path d="M241.968 28.0564C241.968 26.1768 240.627 25.4249 238.991 26.3698L159.821 71.9986C158.958 72.5628 158.239 73.3221 157.724 74.2152C157.208 75.1082 156.91 76.11 156.854 77.1396V86.8627L241.968 37.7795V28.0564Z" fill="#008081"/>
<path d="M224.051 39.0895C223.516 39.5127 223.086 40.0539 222.795 40.6709C222.504 41.2878 222.36 41.9636 222.374 42.6455C222.374 44.0679 223.126 44.7994 224.051 44.261C224.584 43.8362 225.013 43.2947 225.303 42.6781C225.594 42.0616 225.739 41.3865 225.728 40.7049C225.728 39.2317 224.976 38.551 224.051 39.0895Z" fill="#F5F7FA"/>
<path d="M230.097 35.5851C229.564 36.0099 229.136 36.5514 228.845 37.1679C228.554 37.7845 228.409 38.4596 228.421 39.1411C228.421 40.5737 229.173 41.295 230.097 40.7667C230.634 40.344 231.065 39.8032 231.358 39.1863C231.65 38.5694 231.796 37.8933 231.784 37.2107C231.784 35.7781 231.032 35.0568 230.097 35.5851Z" fill="#F5F7FA"/>
<path d="M236.144 32.12C235.611 32.5448 235.183 33.0863 234.892 33.7028C234.601 34.3194 234.456 34.9945 234.467 35.676C234.467 37.1086 235.22 37.8299 236.144 37.2915C236.682 36.8704 237.115 36.3298 237.408 35.7126C237.701 35.0953 237.846 34.4184 237.831 33.7354C237.831 32.2826 237.079 31.551 236.144 32.12Z" fill="#F5F7FA"/>
<path d="M157.941 202.738L157.565 202.524C157.269 202.336 156.964 202.164 156.65 202.006L156.153 201.722L155.38 201.275L154.72 200.899L154.354 200.696C154.157 200.599 153.983 200.46 153.846 200.289C153.677 200.11 153.54 199.904 153.439 199.68C153.214 199.189 153.1 198.655 153.104 198.115V84.5967L156.894 86.8217V200.238C156.913 200.754 157.019 201.262 157.209 201.742C157.338 202.037 157.525 202.303 157.758 202.524C157.8 202.584 157.856 202.633 157.921 202.667L157.941 202.738Z" fill="#37474F"/>
<path d="M164.963 99.8067L216.256 70.2207C216.682 69.9768 217.038 70.1496 217.038 70.6169C217.018 70.8797 216.937 71.1343 216.801 71.3601C216.665 71.586 216.479 71.7768 216.256 71.9174L164.993 101.503C164.556 101.757 164.211 101.585 164.211 101.107C164.226 100.847 164.303 100.594 164.433 100.368C164.564 100.142 164.745 99.9501 164.963 99.8067Z" fill="white"/>
<path d="M176.742 113.4L228.004 83.8144C228.43 83.5706 228.786 83.7433 228.786 84.2107C228.766 84.4749 228.685 84.7308 228.55 84.9583C228.414 85.1858 228.227 85.3785 228.004 85.5213L176.742 115.107C176.305 115.351 175.959 115.178 175.959 114.711C175.976 114.446 176.056 114.189 176.192 113.962C176.328 113.734 176.517 113.541 176.742 113.4Z" fill="white"/>
<path d="M176.742 120.207L208.856 101.675C209.293 101.421 209.639 101.594 209.639 102.072C209.62 102.335 209.539 102.59 209.403 102.816C209.267 103.041 209.08 103.232 208.856 103.372L176.742 121.904C176.305 122.148 175.959 121.975 175.959 121.508C175.976 121.244 176.056 120.989 176.192 120.763C176.329 120.536 176.517 120.346 176.742 120.207Z" fill="white"/>
<path d="M176.742 127.005L208.856 108.473C209.293 108.219 209.639 108.402 209.639 108.869C209.62 109.132 209.539 109.387 209.403 109.613C209.267 109.839 209.08 110.03 208.856 110.17L176.742 128.702C176.305 128.956 175.959 128.773 175.959 128.306C175.976 128.042 176.056 127.787 176.192 127.56C176.329 127.334 176.517 127.144 176.742 127.005Z" fill="white"/>
<path d="M219.304 68.4627L233.929 59.9892C234.366 59.7454 234.711 59.9181 234.711 60.3855C234.694 60.6503 234.614 60.9071 234.478 61.135C234.342 61.3628 234.153 61.5552 233.929 61.6961L219.304 70.1696C218.867 70.4134 218.521 70.2407 218.521 69.7733C218.539 69.5086 218.619 69.2517 218.755 69.0238C218.891 68.796 219.079 68.6037 219.304 68.4627Z" fill="white"/>
<path d="M177.636 167.36L216.255 145.008C216.682 144.754 217.038 144.937 217.038 145.405C217.017 145.667 216.935 145.921 216.799 146.147C216.663 146.372 216.477 146.563 216.255 146.705L177.636 169.057C177.199 169.301 176.854 169.128 176.854 168.661C176.874 168.398 176.955 168.144 177.091 167.918C177.227 167.693 177.414 167.502 177.636 167.36Z" fill="white"/>
<path d="M219.304 143.241L233.888 134.737C234.325 134.483 234.67 134.666 234.67 135.133C234.653 135.397 234.573 135.652 234.437 135.878C234.301 136.104 234.113 136.295 233.888 136.434L219.304 144.897C218.867 145.151 218.521 144.968 218.521 144.501C218.547 144.245 218.63 143.998 218.766 143.78C218.902 143.561 219.086 143.377 219.304 143.241Z" fill="white"/>
<path d="M184.191 143.058L233.888 114.406C234.325 114.162 234.67 114.335 234.67 114.802C234.653 115.067 234.573 115.324 234.437 115.552C234.301 115.78 234.113 115.972 233.888 116.113L184.191 144.764C183.764 145.008 183.408 144.836 183.408 144.358C183.429 144.096 183.511 143.842 183.647 143.616C183.783 143.39 183.969 143.199 184.191 143.058Z" fill="white"/>
<path d="M171.72 157.292L233.887 121.203C234.324 120.959 234.669 121.132 234.669 121.599C234.652 121.864 234.572 122.121 234.436 122.349C234.3 122.577 234.112 122.769 233.887 122.91L171.72 158.988C171.293 159.242 170.938 159.059 170.938 158.592C170.957 158.329 171.038 158.075 171.174 157.849C171.31 157.623 171.497 157.432 171.72 157.292Z" fill="white"/>
<path d="M174.647 162.28L216.254 138.201C216.681 137.957 217.036 138.13 217.036 138.597C217.017 138.862 216.936 139.118 216.8 139.345C216.664 139.573 216.477 139.765 216.254 139.908L174.677 163.987C174.24 164.231 173.895 164.058 173.895 163.591C173.909 163.329 173.984 163.074 174.114 162.846C174.245 162.619 174.427 162.425 174.647 162.28Z" fill="white"/>
<path d="M171.72 150.241L179.942 145.497C180.369 145.243 180.724 145.426 180.724 145.893C180.705 146.156 180.624 146.41 180.488 146.636C180.352 146.862 180.165 147.053 179.942 147.193L171.72 151.938C171.293 152.192 170.938 152.009 170.938 151.542C170.955 151.278 171.035 151.023 171.171 150.797C171.307 150.571 171.495 150.38 171.72 150.241Z" fill="white"/>
<path d="M164.962 106.624L200.919 85.857C201.356 85.603 201.712 85.7859 201.712 86.2532C201.692 86.5174 201.61 86.7732 201.472 86.9993C201.335 87.2255 201.145 87.4155 200.919 87.5537L164.962 108.321C164.525 108.575 164.18 108.392 164.18 107.925C164.197 107.661 164.277 107.406 164.413 107.179C164.549 106.953 164.738 106.763 164.962 106.624Z" fill="white"/>
<path d="M164.962 113.401L172.229 109.205C172.656 108.951 173.011 109.123 173.011 109.601C172.99 109.863 172.908 110.117 172.773 110.343C172.637 110.569 172.451 110.76 172.229 110.901L164.962 115.098C164.525 115.352 164.18 115.169 164.18 114.701C164.197 114.438 164.277 114.182 164.413 113.956C164.549 113.73 164.738 113.54 164.962 113.401Z" fill="white"/>
<path d="M164.962 120.207L172.229 116.011C172.656 115.757 173.011 115.94 173.011 116.408C172.99 116.67 172.908 116.924 172.773 117.15C172.637 117.375 172.451 117.566 172.229 117.708L164.962 121.904C164.525 122.158 164.18 121.975 164.18 121.508C164.197 121.244 164.277 120.989 164.413 120.763C164.549 120.537 164.738 120.346 164.962 120.207Z" fill="white"/>
<path d="M164.962 127.005L172.229 122.809C172.656 122.555 173.011 122.738 173.011 123.205C172.99 123.468 172.908 123.722 172.773 123.947C172.637 124.173 172.451 124.364 172.229 124.506L164.962 128.702C164.525 128.956 164.18 128.773 164.18 128.306C164.199 128.043 164.279 127.788 164.415 127.562C164.551 127.336 164.739 127.145 164.962 127.005Z" fill="white"/>
<path d="M164.962 133.802L172.229 129.606C172.656 129.352 173.011 129.535 173.011 130.002C172.99 130.265 172.908 130.519 172.773 130.744C172.637 130.97 172.451 131.161 172.229 131.303L164.962 135.499C164.525 135.753 164.18 135.57 164.18 135.103C164.199 134.84 164.279 134.585 164.415 134.359C164.551 134.133 164.739 133.942 164.962 133.802Z" fill="white"/>
<path d="M176.742 174.828L208.856 156.296C209.293 156.042 209.639 156.225 209.639 156.693C209.62 156.956 209.539 157.211 209.403 157.437C209.267 157.663 209.08 157.853 208.856 157.993L176.742 176.525C176.305 176.779 175.959 176.596 175.959 176.129C175.976 175.865 176.056 175.61 176.192 175.384C176.329 175.158 176.517 174.967 176.742 174.828Z" fill="white"/>
<path d="M176.742 181.625L208.856 163.093C209.293 162.839 209.639 163.022 209.639 163.49C209.622 163.753 209.542 164.008 209.406 164.235C209.269 164.461 209.081 164.651 208.856 164.79L176.742 183.322C176.305 183.576 175.959 183.393 175.959 182.926C175.978 182.663 176.059 182.408 176.195 182.182C176.331 181.956 176.518 181.765 176.742 181.625Z" fill="white"/>
<path d="M213.531 153.593L233.714 141.98C234.151 141.737 234.497 141.909 234.497 142.377C234.479 142.641 234.399 142.898 234.263 143.126C234.127 143.354 233.939 143.546 233.714 143.687L213.531 155.29C213.104 155.544 212.748 155.361 212.748 154.894C212.768 154.631 212.849 154.376 212.985 154.151C213.121 153.925 213.308 153.734 213.531 153.593Z" fill="white"/>
<path d="M213.531 160.391L233.714 148.778C234.151 148.534 234.497 148.707 234.497 149.184C234.478 149.447 234.397 149.702 234.261 149.928C234.125 150.154 233.938 150.345 233.714 150.485L213.531 162.088C213.104 162.342 212.748 162.159 212.748 161.691C212.769 161.429 212.851 161.175 212.987 160.949C213.123 160.724 213.309 160.533 213.531 160.391Z" fill="white"/>
<path d="M164.962 181.625L172.229 177.429C172.656 177.175 173.011 177.358 173.011 177.826C172.992 178.088 172.911 178.343 172.775 178.569C172.639 178.795 172.452 178.985 172.229 179.126L164.962 183.322C164.525 183.576 164.18 183.403 164.18 182.926C164.199 182.663 164.279 182.408 164.415 182.182C164.551 181.956 164.739 181.765 164.962 181.625Z" fill="white"/>
<path d="M164.962 188.423L172.229 184.227C172.656 183.983 173.011 184.155 173.011 184.623C172.992 184.886 172.911 185.14 172.775 185.366C172.639 185.592 172.452 185.783 172.229 185.923L164.962 190.13C164.525 190.373 164.18 190.201 164.18 189.733C164.197 189.468 164.277 189.212 164.413 188.984C164.549 188.756 164.737 188.564 164.962 188.423Z" fill="white"/>
<path d="M203.968 84.0991L213.278 78.7447C213.705 78.4907 214.06 78.6736 214.06 79.1409C214.041 79.4038 213.96 79.6583 213.824 79.8842C213.688 80.11 213.501 80.3009 213.278 80.4414L203.968 85.7958C203.531 86.0498 203.176 85.8771 203.176 85.3995C203.197 85.1358 203.279 84.8807 203.417 84.6548C203.555 84.4288 203.744 84.2385 203.968 84.0991Z" fill="white"/>
<path d="M176.183 134.066L221.54 107.924C221.967 107.67 222.323 107.853 222.323 108.321C222.303 108.583 222.222 108.838 222.086 109.064C221.95 109.29 221.763 109.481 221.54 109.621L176.183 135.753C175.756 136.007 175.4 135.824 175.4 135.357C175.422 135.095 175.503 134.843 175.639 134.619C175.775 134.395 175.961 134.206 176.183 134.066Z" fill="white"/>
<path d="M164.962 147.508L233.888 107.62C234.325 107.366 234.67 107.549 234.67 108.016C234.653 108.279 234.573 108.535 234.437 108.761C234.3 108.987 234.112 109.178 233.888 109.316L164.962 149.205C164.525 149.459 164.18 149.276 164.18 148.809C164.197 148.545 164.277 148.29 164.413 148.063C164.549 147.837 164.738 147.647 164.962 147.508Z" fill="white"/>
<path d="M224.577 106.166L233.887 100.812C234.324 100.558 234.669 100.741 234.669 101.208C234.652 101.472 234.572 101.727 234.436 101.953C234.3 102.18 234.111 102.37 233.887 102.509L224.577 107.873C224.14 108.117 223.795 107.944 223.795 107.467C223.814 107.204 223.895 106.949 224.031 106.723C224.167 106.497 224.354 106.306 224.577 106.166Z" fill="white"/>
<path d="M176.742 106.613L212.699 85.8463C213.136 85.5923 213.491 85.7751 213.491 86.2425C213.47 86.5062 213.388 86.7614 213.25 86.9873C213.112 87.2132 212.923 87.4036 212.699 87.543L176.742 108.32C176.305 108.574 175.949 108.391 175.949 107.924C175.967 107.658 176.048 107.4 176.186 107.172C176.324 106.944 176.515 106.753 176.742 106.613Z" fill="white"/>
<path d="M215.746 84.0894L225.055 78.735C225.482 78.481 225.838 78.6537 225.838 79.1312C225.816 79.3937 225.735 79.6476 225.599 79.8732C225.463 80.0988 225.277 80.29 225.055 80.4317L215.746 85.7861C215.309 86.0401 214.953 85.8572 214.953 85.3898C214.974 85.1261 215.057 84.871 215.194 84.6451C215.332 84.4191 215.521 84.2288 215.746 84.0894Z" fill="white"/>
<path opacity="0.1" d="M52.6817 227.67L23.575 244.465C23.2336 244.687 22.9497 244.988 22.7465 245.341C22.5434 245.694 22.4268 246.09 22.4062 246.497V281.58C22.4062 282.321 22.9347 282.596 23.575 282.25L52.6817 265.486C53.022 265.263 53.305 264.962 53.508 264.609C53.711 264.256 53.8283 263.861 53.8505 263.454V228.341C53.8505 227.599 53.322 227.305 52.6817 227.67Z" fill="#103E13"/>
<path opacity="0.1" d="M44.4294 158.013L22.9449 170.388C22.7885 170.489 22.6582 170.625 22.5646 170.786C22.471 170.946 22.4167 171.127 22.4062 171.313V183.302C22.4062 183.647 22.6502 183.779 22.9449 183.606L44.4294 171.231C44.5856 171.133 44.7159 170.999 44.8096 170.84C44.9033 170.68 44.9576 170.501 44.968 170.317V158.318C44.968 157.983 44.7241 157.841 44.4294 158.013Z" fill="#103E13"/>
<path opacity="0.1" d="M44.4294 182.936L22.9449 195.311C22.7885 195.412 22.6582 195.548 22.5646 195.709C22.471 195.869 22.4167 196.05 22.4062 196.236V208.224C22.4062 208.56 22.6502 208.702 22.9449 208.529L44.4294 196.154C44.5864 196.054 44.7171 195.918 44.8108 195.757C44.9045 195.596 44.9584 195.416 44.968 195.23V183.241C44.968 182.906 44.7241 182.763 44.4294 182.936Z" fill="#103E13"/>
<path opacity="0.1" d="M44.4294 207.888L22.9449 220.233C22.7879 220.333 22.6572 220.469 22.5635 220.63C22.4698 220.791 22.4159 220.972 22.4062 221.157V233.146C22.4062 233.482 22.6502 233.624 22.9449 233.451L44.4294 221.096C44.5858 220.996 44.7161 220.859 44.8097 220.699C44.9033 220.538 44.9576 220.358 44.968 220.172V208.183C44.968 207.817 44.7241 207.685 44.4294 207.888Z" fill="#103E13"/>
<path d="M56.2895 229.072L27.2234 245.836C26.882 246.059 26.5981 246.359 26.395 246.712C26.1918 247.065 26.0752 247.462 26.0547 247.868V282.951C26.0728 283.359 26.1883 283.756 26.3917 284.109C26.5951 284.463 26.8803 284.763 27.2234 284.983L29.439 286.233C29.8013 286.416 30.2017 286.511 30.6077 286.511C31.0137 286.511 31.4141 286.416 31.7764 286.233L60.8832 269.469C61.2246 269.246 61.5085 268.946 61.7116 268.593C61.9148 268.24 62.0314 267.844 62.0519 267.437V232.273C62.0327 231.864 61.9156 231.467 61.7104 231.113C61.5053 230.759 61.2181 230.46 60.873 230.241L58.6677 228.991C58.2936 228.814 57.8825 228.729 57.4687 228.743C57.0549 228.757 56.6506 228.87 56.2895 229.072Z" fill="#0C5353"/>
<path opacity="0.5" d="M61.9919 232.11C61.9004 231.521 61.4228 231.308 60.8435 231.643L31.7367 248.417C31.3919 248.629 31.1082 248.926 30.9135 249.281L26.3809 246.659C26.5751 246.322 26.8512 246.039 27.1837 245.836L56.2905 229.072C56.6529 228.889 57.0532 228.794 57.4592 228.794C57.8652 228.794 58.2656 228.889 58.628 229.072L60.8333 230.322C61.1426 230.52 61.406 230.783 61.6058 231.091C61.8056 231.399 61.9372 231.747 61.9919 232.11Z" fill="white"/>
<path d="M60.8419 231.643L31.7351 248.418C31.3932 248.639 31.1088 248.939 30.9056 249.293C30.7024 249.646 30.5861 250.042 30.5664 250.45V285.522C30.5664 286.264 31.0949 286.538 31.7351 286.193L60.8419 269.429C61.182 269.206 61.4643 268.905 61.6657 268.552C61.8672 268.199 61.9819 267.803 62.0005 267.397V232.273C62.0005 231.572 61.4822 231.257 60.8419 231.643Z" fill="#008081"/>
<path d="M48.0681 159.364L26.5836 171.749C26.4274 171.848 26.297 171.982 26.2033 172.141C26.1096 172.3 26.0553 172.479 26.0449 172.663V184.663C26.0553 184.847 26.1096 185.026 26.2033 185.185C26.297 185.344 26.4274 185.478 26.5836 185.577L28.7076 186.786C28.8667 186.86 29.0402 186.899 29.2158 186.899C29.3914 186.899 29.5648 186.86 29.7239 186.786L51.2694 174.36C51.4228 174.257 51.5503 174.12 51.642 173.96C51.7336 173.799 51.787 173.62 51.7979 173.436V161.447C51.7875 161.262 51.7332 161.083 51.6395 160.924C51.5458 160.765 51.4154 160.631 51.2592 160.532L49.1453 159.323C48.9741 159.249 48.7885 159.215 48.6021 159.222C48.4157 159.229 48.2332 159.277 48.0681 159.364Z" fill="#0C5353"/>
<path d="M51.2692 161.152L29.7746 173.558C29.6189 173.658 29.4897 173.795 29.3977 173.956C29.3058 174.117 29.2538 174.297 29.2461 174.482V186.471C29.2461 186.806 29.4798 186.949 29.7746 186.776L51.2692 174.36C51.4243 174.259 51.5531 174.122 51.645 173.962C51.7368 173.801 51.7892 173.621 51.7977 173.436V161.447C51.7977 161.152 51.6148 161.01 51.2692 161.152Z" fill="#008081"/>
<g opacity="0.2">
<path opacity="0.2" d="M51.0232 161.056L29.5285 173.461C29.3728 173.562 29.2436 173.698 29.1517 173.859C29.0597 174.02 29.0077 174.2 29 174.386V186.374C29 186.71 29.2337 186.852 29.5285 186.679L51.0232 174.264C51.1782 174.162 51.307 174.026 51.3989 173.865C51.4908 173.704 51.5431 173.524 51.5516 173.339V161.35C51.5516 161.056 51.3687 160.913 51.0232 161.056Z" fill="#008081"/>
</g>
<path d="M48.0681 184.288L26.5836 196.713C26.4283 196.815 26.2988 196.952 26.2054 197.112C26.1119 197.273 26.057 197.453 26.0449 197.638V209.627C26.0554 209.813 26.1096 209.993 26.2032 210.154C26.2969 210.314 26.4272 210.451 26.5836 210.551L28.7076 211.75C28.8659 211.828 29.0397 211.868 29.2158 211.868C29.3919 211.868 29.5657 211.828 29.7239 211.75L51.2186 199.375C51.3709 199.271 51.4976 199.134 51.5891 198.974C51.6807 198.814 51.7347 198.635 51.7471 198.451V186.462C51.7366 186.276 51.6824 186.096 51.5887 185.935C51.4951 185.774 51.3648 185.638 51.2084 185.537L49.0945 184.339C48.9374 184.256 48.7642 184.209 48.5869 184.2C48.4096 184.191 48.2326 184.221 48.0681 184.288Z" fill="#0C5353"/>
<path d="M51.2692 186.095L29.7746 198.481C29.6197 198.58 29.4909 198.714 29.3989 198.873C29.307 199.033 29.2545 199.211 29.2461 199.395V211.394C29.2461 211.729 29.4798 211.871 29.7746 211.699L51.2692 199.324C51.4232 199.221 51.5511 199.085 51.6428 198.924C51.7346 198.764 51.7876 198.584 51.7977 198.399V186.41C51.7977 186.065 51.6148 185.933 51.2692 186.095Z" fill="#008081"/>
<path d="M48.0681 209.21L26.5836 221.585C26.4272 221.686 26.2969 221.822 26.2032 221.983C26.1096 222.143 26.0554 222.324 26.0449 222.51V234.498C26.0554 234.684 26.1096 234.865 26.2032 235.025C26.2969 235.186 26.4272 235.322 26.5836 235.423L28.7076 236.622C28.8667 236.696 29.0402 236.735 29.2158 236.735C29.3914 236.735 29.5648 236.696 29.7239 236.622L51.2694 224.247C51.4217 224.143 51.5484 224.006 51.6399 223.845C51.7315 223.685 51.7855 223.506 51.7979 223.322V211.333C51.7874 211.148 51.7332 210.967 51.6396 210.807C51.5459 210.646 51.4156 210.51 51.2592 210.409L49.1453 209.21C48.9785 209.125 48.7939 209.081 48.6067 209.081C48.4195 209.081 48.235 209.125 48.0681 209.21Z" fill="#0C5353"/>
<path d="M51.5802 211.147C51.5802 210.883 51.3261 210.781 51.0517 210.934L29.5672 223.309C29.4123 223.414 29.2837 223.553 29.1912 223.715L26 221.876C26.0891 221.723 26.2148 221.594 26.3659 221.5L47.8605 209.125C48.0281 209.043 48.2124 209 48.3992 209C48.586 209 48.7702 209.043 48.9378 209.125L51.0517 210.334C51.1942 210.423 51.3155 210.541 51.4069 210.682C51.4982 210.822 51.5574 210.981 51.5802 211.147Z" fill="white" fill-opacity="0.46"/>
<path d="M51.5802 186.147C51.5802 185.883 51.3261 185.781 51.0517 185.934L29.5672 198.309C29.4123 198.414 29.2837 198.553 29.1912 198.715L26 196.876C26.0891 196.723 26.2148 196.594 26.3659 196.5L47.8605 184.125C48.0281 184.043 48.2124 184 48.3992 184C48.586 184 48.7702 184.043 48.9378 184.125L51.0517 185.334C51.1942 185.423 51.3155 185.541 51.4069 185.682C51.4982 185.822 51.5574 185.981 51.5802 186.147Z" fill="white" fill-opacity="0.46"/>
<path d="M51.5802 161.147C51.5802 160.883 51.3261 160.781 51.0517 160.934L29.5672 173.309C29.4123 173.414 29.2837 173.553 29.1912 173.715L26 171.876C26.0891 171.723 26.2148 171.594 26.3659 171.5L47.8605 159.125C48.0281 159.043 48.2124 159 48.3992 159C48.586 159 48.7702 159.043 48.9378 159.125L51.0517 160.334C51.1942 160.423 51.3155 160.541 51.4069 160.682C51.4982 160.822 51.5574 160.981 51.5802 161.147Z" fill="white" fill-opacity="0.46"/>
<path d="M51.2692 211.018L29.7746 223.393C29.6206 223.496 29.4927 223.633 29.401 223.793C29.3092 223.954 29.2562 224.133 29.2461 224.318V236.337C29.2461 236.683 29.4798 236.815 29.7746 236.652L51.2692 224.247C51.4232 224.144 51.5511 224.007 51.6428 223.847C51.7346 223.686 51.7876 223.507 51.7977 223.322V211.333C51.7977 210.988 51.6148 210.856 51.2692 211.018Z" fill="#008081"/>
<path d="M368.592 349.395C369.314 350.816 369.637 352.407 369.527 353.997C369.456 355.389 368.623 357.197 368.999 360.337C369.375 363.476 370.097 364.472 370.432 366.687C370.629 367.703 370.622 368.749 370.41 369.762C370.199 370.775 369.789 371.737 369.202 372.59C367.901 374.703 365.035 376.38 359.364 376.176C354.791 376.014 352.941 373.667 352.84 370.974L368.592 349.395Z" fill="#263238"/>
<path d="M367.291 342.912C367.432 343.496 367.524 344.091 367.566 344.69C367.739 345.757 368.054 346.722 368.308 347.809C368.379 348.084 368.44 348.358 368.501 348.632C368.938 350.735 368.501 352.91 368.501 355.054C368.676 357.586 369.123 360.093 369.832 362.531C370.848 366.981 371.021 369.958 367.129 373.037C365.096 374.662 362.83 374.713 360.228 374.784C358.227 374.854 356.245 374.376 354.496 373.403C352.83 372.173 352.85 371.137 352.84 370.741C352.687 366.016 354.395 360.52 354.74 355.805C354.869 354.536 354.896 353.259 354.821 351.985C354.659 350.421 354.12 348.866 353.947 347.291C353.826 346.704 353.901 346.094 354.161 345.554C354.424 345.255 354.747 345.016 355.11 344.853C355.473 344.69 355.867 344.607 356.265 344.609C358.297 344.335 360.411 344.131 362.495 343.979C362.984 343.886 363.491 343.988 363.907 344.264C364.314 344.629 364.324 345.28 364.436 345.777C364.547 346.275 364.934 346.915 365.452 346.793C365.623 346.738 365.775 346.633 365.887 346.492C365.999 346.351 366.067 346.18 366.082 346.001C366.133 345.655 366.285 342.953 366.275 342.557C366.316 342.577 367.048 342.465 367.291 342.912Z" fill="#37474F"/>
<path d="M298.468 358.589C298.133 359.424 298.133 360.356 298.468 361.19C298.803 361.963 302.675 364.36 308.031 364.238C311.994 364.112 315.853 362.933 319.21 360.825C321.294 359.555 323.428 359.392 326.081 359.341C328.733 359.29 331.843 358.325 332.748 357.137C333.088 355.972 333.088 354.735 332.748 353.57L298.468 358.589Z" fill="#263238"/>
<path d="M317.858 342.77C317.653 343.152 317.47 343.546 317.309 343.949C316.653 345.401 315.639 346.662 314.362 347.616C312.514 348.894 310.53 349.964 308.447 350.807C307.126 351.396 305.744 351.558 304.382 352.026C302.873 352.509 301.418 353.149 300.042 353.936C297.888 355.257 297.481 358.803 299.809 360.306C301.841 361.597 307.197 363.131 312.949 361.749C316.09 360.997 319.657 357.817 323.742 357.685C326.334 357.594 331.263 357.065 333.011 355.165C333.651 352.331 332.95 351.528 332.371 349.069C332.061 347.709 331.897 346.319 331.883 344.924C331.883 344.192 332.371 342.089 330.867 341.876L330.714 343.451C330.714 343.451 330.42 343.979 328.814 344.264C328.295 344.355 327.889 345.036 327.615 345.656C327.34 346.275 327.167 346.753 326.598 346.743C326.421 346.718 326.253 346.646 326.112 346.536C325.971 346.425 325.862 346.279 325.795 346.113C325.673 345.782 325.574 345.442 325.501 345.097C325.295 344.543 324.971 344.041 324.552 343.625C324.132 343.209 323.627 342.89 323.072 342.689C322.15 342.378 321.195 342.176 320.226 342.089C319.494 341.978 318.885 341.663 318.193 342.293C318.061 342.436 317.949 342.597 317.858 342.77Z" fill="#37474F"/>
<path d="M359.558 221.927C360.575 237.441 361.113 246.473 363.888 288.81C365.929 296.056 367.227 303.491 367.76 311C368.309 320.367 369.64 348.592 369.64 348.592C369.64 348.592 362.089 354.79 353.379 351.925C353.379 351.925 345.472 310.431 342.708 297.487C340.066 285.061 338.033 271.477 338.033 271.477L336.072 288.81C336.072 288.81 336.417 296.522 336.173 308.033C336.051 314.19 333.124 347.515 333.124 347.515C333.124 347.515 322.524 352.331 315.37 346.143C315.37 346.143 314.851 292.102 314.74 286.534C314.618 280.174 315.756 216.217 315.756 216.217L359.558 221.927Z" fill="#455A64"/>
<path d="M337.992 271.487L332.575 243.11C332.575 243.11 324.2 242.379 319.576 237.705C319.576 237.705 320.399 242.287 330.928 245.03L336.162 271.162L336.071 288.81L337.992 271.487Z" fill="#37474F"/>
<path d="M369.396 343.501C366.176 346.288 362.037 347.78 357.779 347.687C357.779 347.687 364.995 346.61 369.324 341.855L369.396 343.501Z" fill="#37474F"/>
<path d="M333.458 343.583C333.458 343.583 326.07 346.164 319.84 344.193C319.84 344.193 324.647 347.424 333.346 344.772L333.458 343.583Z" fill="#37474F"/>
<path d="M268.582 152.088C269.005 152.048 269.44 152.346 269.491 153.001V153.003C269.619 154.562 269.909 156.103 270.356 157.602V157.603C270.509 158.186 270.781 158.764 271.045 159.355C271.28 159.882 271.521 160.442 271.711 161.089L271.789 161.371L271.793 161.384C271.939 161.879 272.038 162.319 272.142 162.747C272.244 163.171 272.349 163.584 272.504 163.997C272.819 164.84 273.328 165.651 274.382 166.642C275.933 168.104 280.638 171.496 284.92 174.498C287.068 176.005 289.121 177.421 290.637 178.461C291.394 178.981 292.018 179.406 292.452 179.702C292.669 179.85 292.839 179.965 292.954 180.044C293.012 180.083 293.056 180.114 293.086 180.134C293.101 180.144 293.113 180.151 293.12 180.156C293.124 180.159 293.127 180.161 293.129 180.162C293.13 180.163 293.13 180.164 293.131 180.164L293.355 179.833L293.132 180.164L293.35 180.312L293.572 180.17C297.472 177.662 312.564 168.383 318.212 165.321V165.32C320.882 163.869 322.862 163.747 324.147 163.958C324.793 164.064 325.274 164.257 325.589 164.418C325.687 164.468 325.768 164.516 325.834 164.557L321.178 181.701C321.16 181.71 321.141 181.721 321.121 181.731C320.982 181.803 320.776 181.909 320.513 182.045C319.985 182.316 319.222 182.706 318.287 183.185C316.416 184.141 313.851 185.449 311.073 186.848C305.514 189.648 299.119 192.812 295.736 194.29C293.417 195.285 291.82 195.473 290.184 194.906C288.503 194.324 286.731 192.934 284.109 190.599C280.243 186.941 275.175 181.711 269.692 176.77L268.59 175.785C266.233 173.693 264.432 172.532 262.612 172.443H262.593C261.989 172.443 261.385 172.375 260.758 172.313H260.759C260.066 172.233 259.35 172.112 258.731 171.854C258.12 171.598 257.627 171.219 257.342 170.636L257.341 170.632L257.268 170.475C257.199 170.313 257.14 170.137 257.079 169.947C257.001 169.704 256.918 169.428 256.813 169.175C256.657 168.777 256.456 168.402 256.275 168.056C256.089 167.699 255.923 167.368 255.807 167.025L255.803 167.013L255.797 167C255.615 166.562 255.554 166.084 255.62 165.614L255.624 165.587V165.559C255.624 165.43 255.678 165.294 255.774 165.036C255.857 164.814 255.97 164.499 255.926 164.147L255.924 164.13L255.92 164.112C255.859 163.83 255.74 163.565 255.573 163.33C255.35 162.924 255.237 162.466 255.246 162.002C255.255 161.541 255.384 161.091 255.621 160.695C255.811 160.454 255.972 160.191 256.098 159.91L256.104 159.897L256.108 159.884C256.244 159.512 256.22 159.135 256.188 158.826C256.152 158.49 256.11 158.242 256.131 157.992L256.132 157.986C256.167 157.469 256.412 157.16 256.801 156.96C257.218 156.745 257.811 156.657 258.498 156.666C259.864 156.684 261.414 157.085 262.167 157.324V157.323C262.414 157.406 263.19 157.616 264 157.841C264.837 158.073 265.728 158.327 266.221 158.499L266.789 158.698L266.752 158.097C266.664 156.673 266.804 155.244 267.167 153.864L267.168 153.859C267.491 152.562 268.143 152.129 268.582 152.088Z" fill="#F0F0F0" stroke="#B4B4B4" stroke-width="0.8"/>
<path d="M327.29 163.039C322.473 163.039 320.603 163.039 314.485 166.514C308.367 169.989 296.436 177.883 296.436 177.883C296.436 177.883 301.781 180.86 302.848 191.426L322.158 182.363L327.29 163.039Z" fill="#455A64"/>
<path d="M264.493 159.736C266.089 160.122 266.587 161.128 266.699 163.374C266.76 164.705 267.319 167.133 268.833 168.017C268.132 167.991 267.455 167.754 266.892 167.336C266.16 166.676 265.967 166.615 265.611 167.041C265.348 167.328 265.021 167.547 264.656 167.681C264.918 167.943 265.088 168.282 265.141 168.649C265.194 169.015 265.127 169.388 264.951 169.713C264.331 170.912 261.211 171.146 258.568 169.998C258.568 169.998 262.806 171.014 263.65 169.632C264.493 168.25 262.217 166.747 260.601 166.411C260.601 166.411 264.666 167.092 265.195 165.741C265.723 164.39 263.995 163.506 261.597 163.069C261.597 163.069 264.951 163.445 265.439 162.276C265.621 161.811 265.626 161.294 265.451 160.826C265.277 160.357 264.936 159.969 264.493 159.736Z" fill="#BFBFBF"/>
<path d="M293.314 179.864C295.429 181.275 297.066 183.294 298.01 185.655C298.01 185.655 298.345 181.195 294.676 179L293.314 179.864Z" fill="#BFBFBF"/>
<path d="M315.176 180.412C315.776 168.454 320.593 163.628 327.29 163.038L342.342 162.022C346.407 162.967 356.976 164.999 356.976 164.999C361.356 166.31 364.436 177.73 363.409 184.232C362.383 190.735 360.239 195.693 359.639 206.635C359.812 216.998 359.964 219.051 359.964 223.115C350.604 229.058 325.461 230.298 315.572 224.334C315.572 224.334 315.399 214.316 315.196 207.936C314.851 196.993 314.973 184.527 315.176 180.412Z" fill="#008081"/>
<path d="M319.128 129.683C318.523 130.029 318.023 130.531 317.679 131.137C317.336 131.743 317.162 132.431 317.177 133.128C317.153 134.171 317.451 135.196 318.031 136.064C318.907 137.171 320.12 137.962 321.486 138.319C322.075 138.46 322.65 138.654 323.204 138.899C323.894 139.39 324.54 139.941 325.135 140.544C326.06 141.256 326.974 141.987 327.919 142.678C329.793 144.077 331.752 145.36 333.783 146.519C335.736 147.636 337.775 148.594 339.881 149.384C342.107 150.207 343.946 149.485 346.324 149.699L345.979 156.14C345.979 156.14 346.772 154.657 347.676 152.889C348.459 151.365 351.741 143.603 351.741 143.603C353.022 140.555 354.648 137.364 354.455 133.961C354.292 131.207 353.743 128.789 351.65 127.621C351.477 124.451 350.756 122.907 348.53 121.21C346.888 120.1 345.001 119.403 343.032 119.178C340.807 118.921 338.556 119 336.355 119.412C333.062 119.94 329.769 120.783 326.436 120.61C324.654 120.421 322.854 120.534 321.11 120.946C320.003 121.305 319.041 122.012 318.369 122.963C317.697 123.913 317.35 125.055 317.38 126.219C317.309 127.428 318.275 129.419 319.128 129.683Z" fill="#37474F"/>
<path d="M323.388 129.698C323.625 130.102 323.981 130.548 324.468 130.98C325.444 131.847 326.951 132.659 329.093 132.954V132.955C333.342 133.568 336.621 132.32 339.627 131.084C339.765 132.068 340.237 133.156 340.938 134.248C341.752 135.516 342.898 136.825 344.269 138.043C343.965 139.907 344.031 141.813 344.463 143.653L344.466 143.666L344.469 143.678C344.654 144.29 344.938 144.867 345.307 145.39V145.391C345.468 145.647 345.685 145.864 345.94 146.025C346.196 146.187 346.485 146.29 346.786 146.326L346.81 146.329H346.834C347.24 146.329 347.571 146.221 347.832 145.994C348.074 145.784 348.217 145.503 348.325 145.231L348.326 145.232C348.618 144.593 348.949 143.971 349.315 143.371C349.466 143.135 349.641 142.914 349.836 142.712C350.286 142.307 351.175 141.854 352.087 141.853C352.536 141.852 352.984 141.961 353.394 142.232C353.803 142.504 354.199 142.957 354.517 143.682C355.139 145.1 354.88 146.861 354.141 148.382C353.396 149.914 352.23 151.069 351.198 151.355H351.197C349.265 151.901 348.151 151.497 347.526 151.028C347.205 150.787 346.994 150.515 346.864 150.304C346.799 150.198 346.756 150.109 346.729 150.049C346.715 150.019 346.706 149.996 346.7 149.982C346.698 149.976 346.696 149.971 346.695 149.969C346.695 149.969 346.695 149.968 346.689 149.97L345.916 150.097L345.985 163.578C345.438 165.128 343.692 166.733 341.383 167.881C339.061 169.035 336.27 169.675 333.807 169.348C332.559 169.182 331.781 168.876 331.326 168.521C330.892 168.181 330.736 167.787 330.746 167.353C330.757 166.893 330.956 166.361 331.304 165.795C331.648 165.234 332.119 164.673 332.625 164.164L332.751 164.038L332.741 163.859L332.477 159.155L332.453 158.739L332.038 158.78C330.252 158.957 328.45 158.89 326.683 158.581C324.895 158.238 323.314 156.623 322.411 153.81L322.239 153.23C320.933 147.494 320.672 141.572 321.466 135.748L321.639 134.583C322.02 132.701 322.441 131.365 322.818 130.451C322.985 130.048 323.141 129.733 323.277 129.491C323.312 129.559 323.347 129.63 323.388 129.698Z" fill="#F0F0F0" stroke="#B4B4B4" stroke-width="0.8"/>
<path d="M332.057 159.198C335.837 158.853 338.907 158.335 341.041 157.166C342.606 156.343 343.957 153.773 344.364 152.858C344.364 152.858 344.262 156.374 342.159 158.325C339.191 161.078 332.168 161.078 332.168 161.078L332.057 159.198Z" fill="#BFBFBF"/>
<path d="M334.039 141.946C334.041 142.215 334.122 142.477 334.272 142.7C334.422 142.923 334.634 143.097 334.882 143.201C335.13 143.304 335.403 143.333 335.667 143.283C335.931 143.233 336.174 143.106 336.367 142.919C336.56 142.732 336.693 142.492 336.751 142.23C336.809 141.968 336.788 141.694 336.692 141.443C336.595 141.192 336.427 140.976 336.209 140.819C335.99 140.663 335.73 140.575 335.462 140.565C335.278 140.562 335.095 140.596 334.924 140.664C334.752 140.732 334.596 140.833 334.464 140.961C334.332 141.089 334.227 141.242 334.154 141.411C334.081 141.58 334.042 141.762 334.039 141.946Z" fill="#263238"/>
<path d="M334.537 137.466L337.86 138.838C338.033 138.384 338.024 137.881 337.835 137.434C337.645 136.987 337.29 136.631 336.844 136.44C336.626 136.35 336.392 136.306 336.156 136.31C335.92 136.313 335.687 136.365 335.471 136.46C335.256 136.556 335.062 136.695 334.901 136.868C334.741 137.04 334.617 137.244 334.537 137.466Z" fill="#263238"/>
<path d="M335.837 149.343L330.756 151.375C330.876 151.715 331.065 152.028 331.309 152.294C331.554 152.56 331.85 152.773 332.18 152.921C332.51 153.07 332.866 153.149 333.227 153.156C333.589 153.163 333.948 153.096 334.282 152.96C334.956 152.672 335.494 152.135 335.783 151.462C336.073 150.789 336.092 150.03 335.837 149.343Z" fill="#A1A1A1"/>
<path d="M332.88 152.909C332.876 152.994 332.876 153.079 332.88 153.163C333.357 153.24 333.846 153.184 334.293 153.001C334.805 152.782 335.241 152.416 335.545 151.949C335.849 151.482 336.007 150.936 336 150.379C335.82 150.339 335.636 150.319 335.452 150.318C334.768 150.324 334.114 150.599 333.632 151.084C333.151 151.57 332.88 152.226 332.88 152.909Z" fill="#BFBFBF"/>
<path d="M322.098 138.757L325.38 137.486C325.305 137.271 325.186 137.073 325.032 136.904C324.878 136.736 324.692 136.6 324.484 136.505C324.276 136.41 324.051 136.358 323.823 136.352C323.594 136.346 323.367 136.386 323.155 136.47C322.712 136.635 322.353 136.968 322.155 137.396C321.957 137.824 321.937 138.313 322.098 138.757Z" fill="#263238"/>
<path d="M322.94 141.652C322.929 141.837 322.955 142.021 323.016 142.196C323.077 142.37 323.173 142.531 323.297 142.668C323.421 142.805 323.571 142.916 323.738 142.994C323.905 143.073 324.087 143.117 324.271 143.125C324.556 143.145 324.841 143.08 325.089 142.937C325.336 142.794 325.535 142.58 325.661 142.324C325.786 142.067 325.831 141.778 325.791 141.495C325.751 141.212 325.627 140.948 325.436 140.736C325.244 140.524 324.993 140.374 324.716 140.305C324.438 140.237 324.147 140.253 323.878 140.351C323.61 140.45 323.377 140.626 323.21 140.858C323.043 141.09 322.949 141.366 322.94 141.652Z" fill="#263238"/>
<path d="M330.237 148.672L325.176 147.717L329.952 139.63L330.237 148.672Z" fill="#BFBFBF"/>
<path d="M357.938 165.666C361.009 166.209 363.436 166.974 365.29 168.18C367.045 169.321 368.306 170.87 369.104 173.051L369.258 173.495C371.498 180.4 377.613 199.492 379.198 207.161L379.337 207.866C379.439 208.421 379.549 208.95 379.654 209.453C379.76 209.957 379.861 210.434 379.947 210.892C380.121 211.809 380.233 212.625 380.211 213.385C380.189 214.138 380.035 214.833 379.676 215.507C379.317 216.18 378.743 216.853 377.85 217.548C368.977 223.966 359.714 229.826 350.113 235.095C345.939 237.281 340.681 238.598 336.446 239.368C334.333 239.752 332.481 239.999 331.159 240.149C331.028 240.164 330.902 240.176 330.781 240.189L338.544 235.497L338.639 235.439L338.69 235.34L340.303 232.266L364.995 210.399L365.194 210.223L365.108 209.972L355.77 182.389C355.769 182.386 355.769 182.384 355.769 182.381C355.764 182.355 355.758 182.315 355.75 182.264C355.734 182.161 355.712 182.008 355.685 181.813C355.63 181.423 355.557 180.862 355.484 180.178C355.34 178.809 355.197 176.954 355.204 175.009C355.211 173.06 355.369 171.037 355.814 169.324C356.246 167.667 356.93 166.369 357.938 165.666Z" fill="#F0F0F0" stroke="#B4B4B4" stroke-width="0.8"/>
<path d="M364.73 210.1C366.741 209.064 368.972 208.527 371.234 208.535C371.234 208.535 369.039 206.645 364.191 208.535L364.73 210.1Z" fill="#BFBFBF"/>
<path d="M356.976 165C359.872 165.538 363.074 165.853 366.021 167.723C368.968 169.592 369.507 171.858 371.773 178.838C374.04 185.818 376.712 196.11 376.712 196.11C376.712 196.11 371.163 200.804 361.61 200.936C361.61 200.936 356.905 187.88 355.746 184.975C354.588 182.069 351.671 172.701 356.976 165Z" fill="#455A64"/>
<path d="M346.773 227.718V228.592C346.783 229.022 346.679 229.448 346.472 229.826C346.265 230.204 345.962 230.521 345.594 230.745L322.524 244.746C322.15 244.956 321.728 245.066 321.299 245.066C320.871 245.066 320.449 244.956 320.075 244.746L276.618 220.951C276.242 220.74 275.928 220.436 275.705 220.067C275.483 219.699 275.359 219.279 275.348 218.848V218.259L321.274 243.435L346.773 227.718Z" fill="#9D9D9D"/>
<path d="M275.338 218.259L300.451 203.019C300.673 202.891 300.926 202.824 301.182 202.824C301.439 202.824 301.691 202.891 301.914 203.019L346.631 227.525C346.68 227.554 346.72 227.594 346.748 227.643C346.775 227.692 346.79 227.748 346.79 227.804C346.79 227.86 346.775 227.916 346.748 227.965C346.72 228.014 346.68 228.055 346.631 228.084L321.275 243.476L275.338 218.259Z" fill="#969696"/>
<g opacity="0.85">
<path opacity="0.85" d="M275 218.435L300.113 203.194C300.336 203.067 300.588 203 300.844 203C301.101 203 301.353 203.067 301.576 203.194L346.293 227.7C346.342 227.729 346.382 227.77 346.41 227.819C346.437 227.868 346.452 227.924 346.452 227.98C346.452 228.036 346.437 228.092 346.41 228.141C346.382 228.19 346.342 228.23 346.293 228.259L320.937 243.652L275 218.435Z" fill="white"/>
</g>
<path d="M320.712 241.224L334.259 233.004L294.034 210.957L280.416 219.136L320.712 241.224Z" fill="#686868"/>
<path d="M327.126 219.44L320.489 223.474L308.375 216.829L315.022 212.806L327.126 219.44Z" fill="#686868"/>
<path d="M321.264 243.435V245.061C320.835 245.075 320.41 244.973 320.034 244.766L276.618 220.951C276.242 220.74 275.928 220.436 275.705 220.067C275.483 219.699 275.359 219.279 275.348 218.848V218.259L321.264 243.435Z" fill="#969696"/>
<path d="M320.523 244.226C320.121 244.394 319.686 244.468 319.251 244.443C318.817 244.419 318.393 244.296 318.013 244.083L274.759 220.37C274.38 220.16 274.053 219.869 273.8 219.518C273.547 219.166 273.375 218.764 273.296 218.338L268.011 190.56C267.996 190.401 267.996 190.242 268.011 190.083C268.001 189.699 268.068 189.317 268.207 188.959C268.347 188.602 268.557 188.276 268.824 188L313.724 212.648C314.002 212.798 314.243 213.008 314.43 213.263C314.616 213.518 314.743 213.811 314.801 214.121L320.523 244.226Z" fill="#969696"/>
<path d="M321.263 243.436L320.978 243.608C320.851 243.686 320.719 243.754 320.582 243.812L314.86 213.748C314.802 213.438 314.675 213.144 314.489 212.889C314.302 212.634 314.061 212.424 313.783 212.275L268.832 187.627C269.002 187.444 269.197 187.286 269.411 187.159L314.464 211.848C314.74 212.003 314.98 212.215 315.166 212.471C315.352 212.727 315.48 213.021 315.541 213.331L321.263 243.436Z" fill="#9D9D9D"/>
<path d="M314.443 212.833L315.114 212.427C315.326 212.69 315.473 213 315.541 213.331L321.263 243.435L320.978 243.608C320.851 243.686 320.719 243.754 320.582 243.811L314.86 213.748C314.796 213.414 314.653 213.101 314.443 212.833Z" fill="#9D9D9D"/>
<path d="M295.958 218.604C295.236 216.287 293.649 214.337 291.527 213.158C289.444 212.02 288.031 212.589 288.387 214.459C288.743 216.328 290.724 218.746 292.818 219.894C294.911 221.042 296.314 220.463 295.958 218.604Z" fill="#455A64"/>
<path d="M347.697 225.802C347.829 225.87 347.943 226.014 348.027 226.295C348.147 226.693 348.167 227.269 348.084 227.95C347.918 229.31 347.368 230.886 346.739 231.854C346.622 232.036 346.376 232.273 345.989 232.55C345.611 232.821 345.132 233.105 344.586 233.391C343.495 233.961 342.172 234.517 340.933 234.955C339.701 235.391 338.584 235.698 337.876 235.799C338.089 235.504 338.259 235.178 338.373 234.83C338.541 234.319 338.59 233.775 338.518 233.242C338.445 232.709 338.25 232.199 337.951 231.751C337.652 231.304 337.255 230.93 336.79 230.659L336.768 230.646L336.743 230.635L336.551 230.562C336.351 230.497 336.13 230.458 335.906 230.433C335.602 230.398 335.259 230.385 334.897 230.38C334.536 230.375 334.143 230.379 333.743 230.382C333.34 230.384 332.925 230.386 332.51 230.376C331.675 230.357 330.858 230.293 330.15 230.118C329.44 229.942 328.889 229.665 328.53 229.257C328.093 228.759 327.891 228.407 327.826 228.178C327.796 228.071 327.801 228.011 327.808 227.983C327.813 227.96 327.825 227.934 327.862 227.9C327.956 227.814 328.176 227.71 328.603 227.644C329.012 227.58 329.541 227.56 330.173 227.577C331.515 227.614 332.887 227.427 334.302 227.188C335.73 226.948 337.193 226.658 338.783 226.467C340.331 226.281 341.854 226.519 343.439 226.605C344.901 226.685 346.389 226.624 347.697 225.802Z" fill="#E8F5E9" stroke="#E0E0E0"/>
</svg>
